<svg width="302" height="32" viewBox="0 0 302 32" fill="none" xmlns="http://www.w3.org/2000/svg">
<path d="M0.363281 1H17.8633V9.51562L15.3633 10.0039V13.6953H25.3633V10.0039L22.8633 9.51562V1H40.3633V9.51562L37.8633 10.0039V22.0352L40.3633 22.5234V31H22.8633V22.5234L25.3633 22.0352V18.1094H15.3633V22.0352L17.8633 22.5234V31H0.363281V22.5234L2.86328 22.0352V10.0039L0.363281 9.51562V1ZM76.6914 9.96484C76.6784 10.3815 76.6719 10.7917 76.6719 11.1953C76.6719 11.5859 76.6719 11.9701 76.6719 12.3477V15.6484C76.6719 18.4089 76.2943 20.7917 75.5391 22.7969C74.7969 24.7891 73.7747 26.4362 72.4727 27.7383C71.1836 29.0273 69.6732 29.9518 67.9414 30.5117C66.2096 31.0716 64.3672 31.3516 62.4141 31.3516C60.8906 31.3516 59.4258 31.2474 58.0195 31.0391C56.6263 30.8438 55.3242 30.4727 54.1133 29.9258C52.9023 29.3659 51.8021 28.6628 50.8125 27.8164C49.8229 26.957 48.9701 25.9414 48.2539 24.7695C47.5508 23.5846 47.0039 22.237 46.6133 20.7266C46.2357 19.2161 46.0469 17.5234 46.0469 15.6484V9.96484L43.5469 9.47656V1H59.7773V9.47656L57.2773 9.96484V12.4844C57.2773 12.8099 57.2773 13.1419 57.2773 13.4805C57.2773 13.806 57.2773 14.112 57.2773 14.3984C57.2904 14.6849 57.2969 14.9388 57.2969 15.1602C57.2969 15.3815 57.2969 15.5443 57.2969 15.6484C57.2969 15.974 57.3034 16.3516 57.3164 16.7812C57.3294 17.2109 57.3815 17.6602 57.4727 18.1289C57.5768 18.5846 57.7266 19.0404 57.9219 19.4961C58.1172 19.9518 58.3971 20.362 58.7617 20.7266C59.1393 21.0781 59.6081 21.3646 60.168 21.5859C60.7409 21.8073 61.444 21.918 62.2773 21.918C63.1107 21.918 63.8073 21.8073 64.3672 21.5859C64.9401 21.3646 65.4154 21.0781 65.793 20.7266C66.1706 20.362 66.457 19.9518 66.6523 19.4961C66.8607 19.0404 67.0104 18.5846 67.1016 18.1289C67.1927 17.6602 67.2448 17.2109 67.2578 16.7812C67.2839 16.3516 67.2969 15.974 67.2969 15.6484C67.2969 15.5443 67.2969 15.3815 67.2969 15.1602C67.2969 14.9388 67.2904 14.6849 67.2773 14.3984C67.2773 14.112 67.2773 13.806 67.2773 13.4805C67.2773 13.1419 67.2773 12.8099 67.2773 12.4844V9.96484L64.7773 9.47656V1H79.1914V9.47656L76.6914 9.96484ZM97.4336 13.832L102.746 12.5625V19.4766L97.4336 18.207V22.0352L99.9336 22.6016V31H82.4336V22.5234L84.9336 22.0352V10.0039L82.4336 9.51562V1H106.594V11H103.312C103 10.7135 102.642 10.4206 102.238 10.1211C101.848 9.82161 101.405 9.55469 100.91 9.32031C100.428 9.07292 99.8945 8.8776 99.3086 8.73438C98.7357 8.57812 98.1107 8.5 97.4336 8.5V13.832ZM135.012 21.5859C134.999 22.875 134.81 24.0208 134.445 25.0234C134.094 26.013 133.599 26.8724 132.961 27.6016C132.323 28.3177 131.574 28.9297 130.715 29.4375C129.855 29.9323 128.931 30.3359 127.941 30.6484C126.952 30.9479 125.91 31.1367 124.816 31.2148C123.736 31.306 122.648 31.3516 121.555 31.3516C119.576 31.3516 117.837 31.2734 116.34 31.1172C115.48 31.013 114.198 30.7266 112.492 30.2578C111.099 29.8802 110.005 29.4831 109.211 29.0664V21.3516H115.09C115.767 22.2891 116.529 22.9792 117.375 23.4219C118.234 23.8646 119.113 24.0859 120.012 24.0859C120.246 24.0859 120.507 24.0664 120.793 24.0273C121.079 23.9883 121.346 23.8776 121.594 23.6953C121.854 23.513 122.069 23.2266 122.238 22.8359C122.421 22.4453 122.512 21.8984 122.512 21.1953C121.392 21.0911 120.279 20.9414 119.172 20.7461C118.078 20.5508 117.03 20.2839 116.027 19.9453C115.025 19.6068 114.087 19.1836 113.215 18.6758C112.355 18.1549 111.607 17.5299 110.969 16.8008C110.344 16.0716 109.849 15.2188 109.484 14.2422C109.133 13.2526 108.957 12.1133 108.957 10.8242C108.957 9.44401 109.139 8.23307 109.504 7.19141C109.868 6.13672 110.363 5.23177 110.988 4.47656C111.626 3.70833 112.368 3.07682 113.215 2.58203C114.074 2.07422 114.992 1.67057 115.969 1.37109C116.958 1.07161 117.98 0.882812 119.035 0.804688C120.103 0.726562 121.164 0.6875 122.219 0.6875C123.755 0.6875 125.135 0.746094 126.359 0.863281C127.596 0.967448 128.71 1.13672 129.699 1.37109C130.689 1.60547 131.561 1.8724 132.316 2.17188C133.085 2.45833 133.768 2.73828 134.367 3.01172V10.6289H128.488C127.824 9.69141 127.082 9.0013 126.262 8.55859C125.454 8.11589 124.621 7.89453 123.762 7.89453C123.527 7.89453 123.26 7.92708 122.961 7.99219C122.661 8.04427 122.382 8.18099 122.121 8.40234C121.861 8.61068 121.639 8.92318 121.457 9.33984C121.275 9.74349 121.184 10.2969 121.184 11C123.462 11.0781 125.467 11.3255 127.199 11.7422C128.931 12.1589 130.37 12.7904 131.516 13.6367C132.674 14.4701 133.547 15.5443 134.133 16.8594C134.719 18.1615 135.012 19.737 135.012 21.5859Z" fill="#002D4E"/>
<path d="M153.508 16.3711V31H138.527V22.5234L141.027 22.0352V9.96484L138.527 9.47656V1H153.508L159.797 12.5234L166.027 1H181.027V9.47656L178.527 9.96484V22.0352L181.027 22.5234V31H166.027V16.3711L159.797 27.1523L153.508 16.3711ZM200.012 23.5C200.897 23.5 201.73 23.4284 202.512 23.2852C203.293 23.1289 204.009 22.9336 204.66 22.6992C205.324 22.4648 205.923 22.1979 206.457 21.8984C206.991 21.599 207.46 21.2995 207.863 21H211.125V31H185.012V22.5234L187.512 22.0352V10.0039L185.012 9.51562V1H211.125V11H207.98C207.564 10.7135 207.082 10.4206 206.535 10.1211C205.988 9.82161 205.376 9.55469 204.699 9.32031C204.035 9.07292 203.312 8.8776 202.531 8.73438C201.75 8.57812 200.91 8.5 200.012 8.5V13.832L205.871 12.5625V19.4766L200.012 18.207V23.5ZM234.68 31L233.625 25.9609H225.461L224.426 31H213.312V21.1562L215.715 20.668L221.477 1H237.609L243.391 20.668L245.793 21.1562V31H234.68ZM227.141 19.2617H231.945L229.543 7.95312L227.141 19.2617ZM263.918 23.5C264.543 23.5 265.129 23.4284 265.676 23.2852C266.223 23.1289 266.73 22.9336 267.199 22.6992C267.668 22.4648 268.091 22.1979 268.469 21.8984C268.859 21.599 269.198 21.2995 269.484 21H272.746V31H248.918V22.5234L251.418 22.0352V9.96484L248.918 9.47656V1H266.418V9.47656L263.918 9.96484V23.5ZM301.105 21.5859C301.092 22.875 300.904 24.0208 300.539 25.0234C300.188 26.013 299.693 26.8724 299.055 27.6016C298.417 28.3177 297.668 28.9297 296.809 29.4375C295.949 29.9323 295.025 30.3359 294.035 30.6484C293.046 30.9479 292.004 31.1367 290.91 31.2148C289.829 31.306 288.742 31.3516 287.648 31.3516C285.669 31.3516 283.931 31.2734 282.434 31.1172C281.574 31.013 280.292 30.7266 278.586 30.2578C277.193 29.8802 276.099 29.4831 275.305 29.0664V21.3516H281.184C281.861 22.2891 282.622 22.9792 283.469 23.4219C284.328 23.8646 285.207 24.0859 286.105 24.0859C286.34 24.0859 286.6 24.0664 286.887 24.0273C287.173 23.9883 287.44 23.8776 287.688 23.6953C287.948 23.513 288.163 23.2266 288.332 22.8359C288.514 22.4453 288.605 21.8984 288.605 21.1953C287.486 21.0911 286.372 20.9414 285.266 20.7461C284.172 20.5508 283.124 20.2839 282.121 19.9453C281.118 19.6068 280.181 19.1836 279.309 18.6758C278.449 18.1549 277.701 17.5299 277.062 16.8008C276.438 16.0716 275.943 15.2188 275.578 14.2422C275.227 13.2526 275.051 12.1133 275.051 10.8242C275.051 9.44401 275.233 8.23307 275.598 7.19141C275.962 6.13672 276.457 5.23177 277.082 4.47656C277.72 3.70833 278.462 3.07682 279.309 2.58203C280.168 2.07422 281.086 1.67057 282.062 1.37109C283.052 1.07161 284.074 0.882812 285.129 0.804688C286.197 0.726562 287.258 0.6875 288.312 0.6875C289.849 0.6875 291.229 0.746094 292.453 0.863281C293.69 0.967448 294.803 1.13672 295.793 1.37109C296.783 1.60547 297.655 1.8724 298.41 2.17188C299.178 2.45833 299.862 2.73828 300.461 3.01172V10.6289H294.582C293.918 9.69141 293.176 9.0013 292.355 8.55859C291.548 8.11589 290.715 7.89453 289.855 7.89453C289.621 7.89453 289.354 7.92708 289.055 7.99219C288.755 8.04427 288.475 8.18099 288.215 8.40234C287.954 8.61068 287.733 8.92318 287.551 9.33984C287.368 9.74349 287.277 10.2969 287.277 11C289.556 11.0781 291.561 11.3255 293.293 11.7422C295.025 12.1589 296.464 12.7904 297.609 13.6367C298.768 14.4701 299.641 15.5443 300.227 16.8594C300.812 18.1615 301.105 19.737 301.105 21.5859Z" fill="#9DDAE9"/>
</svg>
