<svg width="84" height="84" viewBox="0 0 84 84" fill="none" xmlns="http://www.w3.org/2000/svg">
<circle cx="42" cy="42" r="42" fill="#FFD77C"/>
<path d="M55.245 26.5613C54.7725 25.1363 53.3213 23.4488 51.7013 23.1C51.0413 22.9575 50.0438 22.9763 49.1775 23.0325L48.7763 23.055C46.9088 23.1488 45.0675 23.5088 43.515 23.85C39.615 24.7088 35.1975 25.68 31.035 27.0863C30.705 27.1988 30.3638 27.3113 30.015 27.4238C27.75 28.1625 25.1813 28.9988 23.34 30.6375C22.2675 31.5938 21.4163 32.9325 20.88 34.5C20.145 36.66 20.0363 39.0563 20.5763 41.2425C21.5738 45.3038 24.1913 45.885 26.955 46.5C27.2513 46.5638 27.5625 46.6313 27.8775 46.7063C29.3513 47.055 30.8513 47.2313 32.3288 47.2313C38.775 47.2313 44.2913 43.98 49.395 40.65C51.4463 39.3075 52.9425 38.0475 54.0863 36.69C56.3288 34.0425 56.2838 29.6963 55.245 26.5613Z" fill="#E4E3DE"/>
<path d="M55.005 25.9725C54.33 26.1675 53.6588 26.3663 52.9838 26.5613C46.0838 28.575 41.475 30.9825 35.4263 34.86C33.7763 35.9175 31.9688 37.8788 31.3688 39.75C30.8475 41.3775 30.6225 42.7875 29.8725 44.325C29.3288 45.4388 28.2338 46.0725 27.0413 46.5188C27.315 46.5788 27.5925 46.6388 27.885 46.71C29.3588 47.0588 30.8588 47.235 32.3363 47.235C38.7825 47.235 44.2988 43.9838 49.4025 40.6538C51.4538 39.3113 52.95 38.0513 54.0938 36.6938C56.3325 34.0463 56.2875 29.6963 55.2488 26.5613C55.185 26.3663 55.0988 26.1713 55.005 25.9725Z" fill="#CDCBBF"/>
<path d="M18.9374 30.4725C18.3449 31.83 18.0787 33.48 18.6787 34.8825C19.3574 36.465 20.9174 36.6188 22.4024 36.9525C25.7549 37.71 30.1874 39.2513 33.6187 38.4713C35.6887 38.0025 37.7062 36.6263 39.5437 35.61C43.9349 33.1725 48.2699 30.6075 52.8224 28.4663C53.8987 27.96 56.8162 27.255 56.8049 25.7363C56.8012 25.1963 56.8049 24.6563 56.8049 24.1163C56.8049 23.0063 56.6137 21.57 55.5637 20.9475C54.9562 20.5875 54.1987 20.3738 53.5274 20.16C52.4587 19.8188 51.3749 19.4438 50.2949 19.1513C47.1487 18.2888 43.7662 17.8725 40.5337 18.4463C34.5262 19.5188 29.1974 22.125 24.2662 25.65C22.8449 26.6625 21.3674 27.6338 20.1299 28.875C19.5299 29.475 19.1624 29.9588 18.9374 30.4725Z" fill="#FAC11D"/>
<path d="M55.5676 20.9437C55.3463 20.8125 55.1063 20.7075 54.8588 20.6062C55.3463 22.2 50.2463 23.97 48.6338 24.6825C45.1388 26.2312 38.1901 28.905 35.5501 31.6275C34.8563 32.3437 33.3788 34.3987 33.0901 35.34C32.7151 36.5437 31.9576 38.1712 30.0376 38.5949C31.2901 38.7262 32.5126 38.7187 33.6263 38.4675C35.6963 37.9987 37.7138 36.6224 39.5513 35.6062C43.9426 33.1687 48.2776 30.6037 52.8301 28.4625C53.9063 27.9562 56.8238 27.2512 56.8126 25.7325C56.8088 25.1925 56.8126 24.6525 56.8126 24.1125C56.8088 23.0025 56.6138 21.5662 55.5676 20.9437Z" fill="#E4A724"/>
<path d="M29.1262 24.3863C31.7325 24.7013 34.08 25.095 37.2187 25.9688C40.53 26.8913 41.7187 28.005 42.1312 31.3875C42.5512 34.8375 43.2187 40.0688 41.7037 43.3688C41.31 44.22 40.7475 45.075 40.1475 45.7463C40.6012 45.8663 44.1525 44.6138 45.7162 43.4438C48.3112 41.505 48.7837 39.0788 48.8137 36.0338C48.8437 33.195 48.5812 28.4025 47.6662 25.9125C46.8937 23.805 44.8087 23.0363 42.8137 22.4175C41.3812 21.975 38.22 21.1163 35.6512 20.865C33.8775 20.6888 32.355 21.0038 31.9987 21.1238C31.0912 21.4275 29.3512 22.4025 27.9862 23.2163C26.9962 23.8088 26.1675 24.345 26.1675 24.345C26.1675 24.345 27.5362 24.195 29.1262 24.3863Z" fill="#2F2F2F"/>
<path d="M64.9726 45.15C64.5001 43.725 63.0488 42.0375 61.4288 41.6888C60.7688 41.5463 59.7713 41.565 58.9051 41.6213L58.5038 41.6438C56.6363 41.7375 54.7951 42.0975 53.2426 42.4388C49.3426 43.2975 44.9251 44.2688 40.7626 45.675C40.4326 45.7875 40.0913 45.9 39.7426 46.0125C37.4776 46.755 34.9088 47.5913 33.0676 49.23C31.9951 50.1863 31.1438 51.525 30.6076 53.0925C29.8726 55.2525 29.7638 57.6488 30.3038 59.835C31.3013 63.8963 33.9151 64.4775 36.6826 65.0925C36.9788 65.1563 37.2901 65.2238 37.6051 65.2988C39.0788 65.6475 40.5788 65.8238 42.0563 65.8238C48.5026 65.8238 54.0188 62.5725 59.1226 59.2425C61.1738 57.9 62.6701 56.64 63.8138 55.2825C66.0563 52.6313 66.0113 48.285 64.9726 45.15Z" fill="#E4E3DE"/>
<path d="M64.7286 44.5613C64.0536 44.7563 63.3824 44.955 62.7074 45.15C55.8074 47.1638 48.7086 49.275 43.1024 53.775C41.7561 54.855 40.4511 56.1675 40.0911 57.855C39.7311 59.5238 40.3461 61.38 39.5961 62.9175C39.0524 64.0313 37.9574 64.665 36.7649 65.1113C37.0386 65.1713 37.3161 65.2313 37.6086 65.3025C39.0824 65.6513 40.5824 65.8275 42.0599 65.8275C48.5061 65.8275 54.0224 62.5763 59.1261 59.2463C61.1774 57.9038 62.6736 56.6438 63.8174 55.2863C66.0561 52.6388 66.0111 48.2888 64.9724 45.1538C64.9086 44.9588 64.8261 44.76 64.7286 44.5613Z" fill="#CDCBBF"/>
<path d="M28.6312 50.3775C28.0275 52.1663 28.7287 54.0525 30.7875 53.9325C33.1575 53.7975 35.7075 53.8688 38.04 54.3563C39.6037 54.6825 41.1262 55.2263 42.6862 55.5413C43.5412 55.7138 44.61 55.8938 45.5025 55.6988C46.2412 55.5375 46.8937 54.9788 47.5612 54.6413C50.3287 53.2388 52.9125 51.5813 55.7137 50.2463C57.4537 49.4175 59.1675 48.54 60.8887 47.6775C62.2987 46.9725 64.5787 46.4025 65.265 44.775C66.8325 41.0888 61.77 38.25 58.9012 37.5525C55.71 36.7763 51.8362 36.51 48.6337 37.2975C46.2787 37.875 43.9387 38.5688 41.6925 39.5063C39.4987 40.425 37.7137 41.715 35.745 42.9713C33.6975 44.28 31.545 45.9563 29.9925 47.8425C29.4412 48.5175 28.9575 49.4138 28.6312 50.3775Z" fill="#EC6C30"/>
<path d="M63.1163 39.5363C63.4575 40.1213 63.255 41.2088 62.8463 41.7338C62.1413 42.6413 59.7038 43.695 58.8488 44.1413C56.6438 45.285 51.2588 47.2763 49.6688 48.315C47.8763 49.4813 45.3 51.2963 43.7213 52.7363C42.4425 53.9025 41.1563 54.5513 39.5813 54.7388C40.6163 55.02 41.6438 55.335 42.6863 55.545C43.5413 55.7175 44.61 55.8975 45.5025 55.7025C46.2413 55.5413 46.8938 54.9825 47.5613 54.645C50.3288 53.2425 52.9125 51.585 55.7138 50.25C57.4538 49.4213 59.1676 48.5438 60.8888 47.6813C62.2988 46.9763 64.5788 46.4063 65.2651 44.7788C66.1613 42.675 64.8975 40.8488 63.1163 39.5363Z" fill="#D65B29"/>
<path d="M54.5887 37.9312C56.2462 38.6062 57.5249 40.1475 57.8812 41.9025C57.8999 41.9887 57.9149 42.0787 57.8962 42.1687C57.8699 42.2887 57.7724 42.3862 57.6674 42.45C57.2812 42.6712 56.7674 42.4762 56.4674 42.1462C56.1674 41.8162 56.0174 41.3812 55.8187 40.98C55.5299 40.395 55.1287 39.8662 54.6412 39.435C54.4199 39.24 54.1724 39.045 54.0787 38.7675C53.9774 38.4787 54.1087 37.86 54.5887 37.9312ZM47.8499 38.6625C49.0124 39.8362 49.9949 41.1862 50.7524 42.6525C51.0824 43.29 51.3487 44.1375 51.2212 44.8462C51.0974 45.5512 50.7149 45.9187 50.0287 45.7087C49.5562 45.5775 49.3049 44.0775 48.9299 42.9187C48.7124 42.2475 48.0862 41.0775 47.6624 40.5112C47.2387 39.945 46.6612 39.36 46.6687 38.6512C46.6387 38.385 47.1149 38.13 47.8499 38.6625ZM42.1837 40.455C42.5774 40.6537 42.8249 41.01 43.0874 41.3625C43.2412 41.5725 43.3687 41.8012 43.4924 42.03C44.4524 43.7775 45.4424 45.6825 45.1687 47.655C45.1312 47.925 45.0637 48.2025 44.8987 48.4237C44.7337 48.6412 44.4487 48.7875 44.1824 48.72C43.8262 48.5962 43.6312 47.31 43.3574 46.6087C43.2487 46.3312 43.1399 46.05 43.0462 45.7687C42.6112 44.4787 42.4499 43.0875 41.8049 41.895C41.6399 41.5875 41.4337 41.2687 41.4637 40.9237C41.4862 40.5675 41.9062 40.2487 42.1837 40.455ZM36.0037 44.4187C36.0412 43.7812 36.8624 43.98 37.0312 44.4525C37.2937 45.1875 37.4062 45.8587 37.8262 46.515C38.5912 47.7037 38.7899 48.42 38.7637 49.7175C38.7599 49.9387 38.7524 50.1675 38.6587 50.37C38.4337 50.8575 37.6649 50.9625 37.3162 50.55C37.0012 50.1787 37.0874 49.6275 37.0274 49.1437C36.9562 48.5662 36.6599 48.0487 36.4424 47.5125C36.0187 46.4437 35.7974 45.5512 36.0037 44.4187Z" fill="#F4865C"/>
</svg>
