<svg width="84" height="84" viewBox="0 0 84 84" fill="none" xmlns="http://www.w3.org/2000/svg">
<circle cx="42" cy="42" r="42" fill="#FFD77C"/>
<path d="M49.6133 55.6875C48.9024 55.8281 32.0391 57.9648 32.0391 57.9648C32.0391 57.9648 31.6836 60.9531 32.1797 61.9492C32.6758 62.9453 35.8789 65.2227 41.9258 65.2227C47.9727 65.2227 51.3164 63.3008 51.8164 62.1641C52.3164 61.0273 51.6016 56.1875 51.6016 56.1875L49.6133 55.6875Z" fill="#77A3AB"/>
<path d="M30.3086 33.7344L18.8281 39.0508C18.8281 39.0508 19.7461 49.8672 26.9258 55.7891C37.2578 64.3086 52.7266 61.7695 59.8555 53.4336C66.3633 45.8242 65.1719 35.7305 65.1719 35.7305L30.3086 33.7344Z" fill="#A7D0D6"/>
<path d="M18.5429 36.7266C18.2226 41.3633 22.8397 47.0313 41.8749 47.2461C61.7265 47.4688 68.7616 37.6914 64.3163 32.5821C59.871 27.4727 49.0585 26.8789 41.578 26.9532C34.0975 27.0274 19.0624 29.1992 18.5429 36.7266Z" fill="#77A3AC"/>
<path d="M21.047 38.6172C21.047 38.6172 20.84 37.6524 21.1759 36.6446C21.5118 35.6367 22.1134 35.3438 22.1993 35.0196C22.2853 34.6953 21.4611 32.9805 22.8517 30.7266C24.2423 28.4727 25.1446 28.9492 25.5275 28.4727C25.9103 27.9961 25.8907 26.3867 27.6173 24.8516C29.3439 23.3164 30.9259 23.461 30.9259 23.461C30.9259 23.461 31.6954 21.4453 33.5626 20.6797C35.4298 19.9141 37.3126 20.3867 37.3126 20.3867C37.3126 20.3867 38.9923 18.8516 41.3439 18.8047C43.6954 18.7578 44.3673 19.4297 44.8946 19.4766C45.422 19.5235 46.6681 18.9024 48.8751 19.7149C51.0821 20.5313 51.1134 21.7696 51.6095 21.9688C52.1056 22.168 53.4337 21.7774 55.4493 23.4063C57.465 25.0352 57.1329 25.7852 57.4181 26.0938C57.6993 26.4024 59.5939 26.4141 60.6329 29.0664C61.3986 31.0196 60.9884 32.4531 61.0665 32.6641C61.1446 32.875 62.2306 34.0039 62.6993 35.1602C63.1329 36.2383 63.3243 37.75 63.3243 37.75C63.3243 37.75 62.3165 39.5156 59.8751 41.1211C57.2931 42.8203 28.297 42.8946 26.3751 42.2813C23.0548 41.2305 21.047 38.6172 21.047 38.6172Z" fill="#CDCBC0"/>
<path d="M24.2149 35.6914C24.2149 35.6914 24 33.2773 24.6485 31.9492C25.5586 30.0781 27.336 29.8867 27.336 29.8867C27.336 29.8867 27.5352 27.7539 29.0625 26.5781C30.9336 25.1406 31.6524 25.5234 32.2774 24.9453C32.9024 24.3711 33.2852 23.3633 34.8204 22.6914C36.3555 22.0195 37.6016 22.4531 38.1289 22.2109C38.6563 21.9688 39.5 20.9844 41.1797 20.8711C43.3399 20.7266 43.4805 21.5625 44.7188 21.6953C45.5977 21.7891 46.2539 21.2695 48.125 21.8438C49.9961 22.418 50.0586 23.5508 50.6524 23.9375C51.2461 24.3242 52.711 23.9688 54.2969 25.1836C55.7344 26.2852 55.7188 27.3047 56.1211 27.7266C56.5196 28.1484 57.7032 28.3008 58.5665 30.5586C59.2852 32.4375 58.7539 32.9922 58.9493 33.582C59.1446 34.1719 60.2149 34.7891 60.8672 36.5547C61.6836 38.7617 61.4414 39.9141 61.4414 39.9141C61.4414 39.9141 57.5079 45.1523 40.0469 44.9492C27.4766 44.8047 22.9688 40.4414 22.9688 40.4414C22.9688 40.4414 22.7774 38.0898 23.2579 37.1797C23.7383 36.2695 24.2149 35.6914 24.2149 35.6914Z" fill="white"/>
<path d="M40.8945 43.6601C41.2812 44.5312 42.8046 44.6758 44.0859 43.2422C45.2343 41.9531 44.5624 39.9687 43.332 40.1367C42.2109 40.289 42.5781 41.4531 42.0429 41.8984C41.5078 42.3437 40.5585 42.9023 40.8945 43.6601ZM46.8828 38.3437C47.2148 39.0547 49.207 38.9023 49.9609 37.5898C50.7148 36.2734 50.6054 34.3515 49.5117 34.3711C48.0859 34.3984 48.6171 35.8555 48.1132 36.3008C47.6093 36.7461 46.3242 37.1406 46.8828 38.3437ZM54.5781 31.0937C53.7578 31.3594 54.1874 32.4375 53.8515 33.164C53.5156 33.8906 52.621 34.7031 53.3203 35.3203C54.0195 35.9375 55.6132 34.9297 55.8398 33.3906C56.0585 31.8515 55.4453 30.8164 54.5781 31.0937ZM51.1171 40.8281C50.5937 41.668 49.6054 41.2461 49.4101 42.1172C49.2148 42.9844 51.2304 43.293 52.3476 42.2578C53.4687 41.2226 53.1601 39.4609 52.4609 39.3203C51.7617 39.1758 51.5351 40.1562 51.1171 40.8281ZM47.9609 31.2422C48.4218 31.7578 50.2695 31.2109 50.8828 29.3711C51.496 27.5312 50.2851 26.3437 49.4687 26.7617C48.6523 27.1797 49.2343 28.0664 49.039 28.6406C48.8437 29.2148 47.0585 30.2344 47.9609 31.2422Z" fill="#D4D4D4"/>
</svg>
