<svg width="90" height="90" viewBox="0 0 90 90" fill="none" xmlns="http://www.w3.org/2000/svg">
<circle cx="45" cy="45" r="45" fill="#002D4E"/>
<path d="M45 47.5C46.1051 47.5 47.1649 47.061 47.9463 46.2796C48.7277 45.4982 49.1667 44.4384 49.1667 43.3333C49.1667 42.2283 48.7277 41.1685 47.9463 40.3871C47.1649 39.6057 46.1051 39.1667 45 39.1667C43.895 39.1667 42.8352 39.6057 42.0538 40.3871C41.2724 41.1685 40.8334 42.2283 40.8334 43.3333C40.8334 44.4384 41.2724 45.4982 42.0538 46.2796C42.8352 47.061 43.895 47.5 45 47.5Z" fill="white"/>
<path d="M56.785 30.715H56.7866C63.295 37.2233 63.295 47.7767 56.7866 54.285L47.7816 63.29C47.0441 64.0269 46.0442 64.4408 45.0016 64.4408C43.9591 64.4408 42.9592 64.0269 42.2216 63.29L33.2633 54.3317L33.2166 54.285C26.7083 47.7767 26.7083 37.2233 33.2166 30.715C39.7233 24.2067 50.2766 24.2067 56.785 30.715ZM34.9833 32.4817C32.327 35.1384 30.8347 38.7431 30.8347 42.5C30.8347 46.2569 32.327 49.86 34.9833 52.5167L35.0216 52.5567L35.025 52.56L43.9883 61.5233C44.2567 61.7914 44.6206 61.942 45 61.942C45.3793 61.942 45.7432 61.7914 46.0116 61.5233L55.0166 52.5167C57.6416 49.8535 59.1072 46.2605 59.0938 42.5211C59.0804 38.7817 57.589 35.1993 54.945 32.555C52.3009 29.9107 48.7186 28.4191 44.9792 28.4054C41.2399 28.3916 37.6467 29.8569 34.9833 32.4817Z" fill="white"/>
</svg>
