<svg width="35" height="45" viewBox="0 0 35 45" fill="none" xmlns="http://www.w3.org/2000/svg">
<path d="M16.4996 3.61947e-07C18.1336 -0.000504747 19.7248 0.527675 21.0396 1.50702C22.3544 2.48636 23.3235 3.86528 23.8048 5.4414C24.286 7.01751 24.2539 8.70781 23.7133 10.2642C23.1728 11.8206 22.1521 13.1611 20.8012 14.089C23.146 14.957 25.1798 16.5135 26.6407 18.558C28.1016 20.6026 28.9228 23.0416 28.9986 25.5612C29.0057 25.7011 28.9851 25.841 28.9379 25.9727C28.8907 26.1043 28.8179 26.2252 28.7238 26.3281C28.6297 26.431 28.5162 26.514 28.39 26.572C28.2637 26.6301 28.1272 26.6621 27.9885 26.6662C27.8498 26.6703 27.7117 26.6464 27.5823 26.5959C27.4529 26.5455 27.3347 26.4694 27.2348 26.3722C27.1349 26.2751 27.0553 26.1587 27.0005 26.0301C26.9457 25.9014 26.917 25.763 26.9159 25.6229C26.8332 22.8905 25.6996 20.2979 23.7553 18.3946C21.811 16.4913 19.2088 15.4269 16.5002 15.4269C13.7917 15.4269 11.1895 16.4913 9.24523 18.3946C7.30095 20.2979 6.16732 22.8905 6.08458 25.6229C6.07629 25.9019 5.95855 26.1661 5.75726 26.3574C5.55598 26.5487 5.28763 26.6515 5.01126 26.6431C4.73489 26.6347 4.47313 26.5159 4.28357 26.3128C4.09401 26.1096 3.99218 25.8388 4.00047 25.5598C4.07654 23.0405 4.89788 20.6017 6.35879 18.5574C7.8197 16.5132 9.85333 14.9569 12.198 14.089C10.847 13.1611 9.82635 11.8206 9.28577 10.2642C8.74518 8.70781 8.71314 7.01751 9.19436 5.4414C9.67557 3.86528 10.6447 2.48636 11.9595 1.50702C13.2743 0.527675 14.8655 -0.000504747 16.4996 3.61947e-07ZM10.9419 7.71268C10.9419 9.20034 11.5275 10.6271 12.5697 11.679C13.612 12.7309 15.0256 13.3219 16.4996 13.3219C17.9735 13.3219 19.3871 12.7309 20.4294 11.679C21.4716 10.6271 22.0572 9.20034 22.0572 7.71268C22.0572 6.22502 21.4716 4.7983 20.4294 3.74636C19.3871 2.69443 17.9735 2.10346 16.4996 2.10346C15.0256 2.10346 13.612 2.69443 12.5697 3.74636C11.5275 4.7983 10.9419 6.22502 10.9419 7.71268Z" fill="#CCCCCC"/>
<path d="M8.107 37.182V33.464H9.471V43.738H8.107V38.458H7.084V43.496H5.753V33.629H7.084V37.182H8.107ZM2.167 40.823H2.563C3.256 40.823 4.059 40.779 5.016 40.647L5.148 41.879C4.191 42.066 3.344 42.11 2.387 42.11H0.737V34.168H2.167V40.823ZM19.2312 36.786V35.587H21.0352V33.475H22.4432V39.063H21.0352V36.786H19.2312ZM19.3082 39.052L16.6682 37.402C16.1402 38.084 15.3372 38.678 14.2592 39.217L13.5992 38.084C15.3262 37.193 16.0522 36.28 16.1182 35.136H14.0062V33.904H19.6162V35.136H17.4822C17.4712 35.543 17.4052 35.928 17.2732 36.291L19.9902 37.897L19.3082 39.052ZM17.7352 39.514H20.0672C21.5412 39.514 22.5642 40.383 22.5642 41.681C22.5642 42.99 21.5412 43.848 20.0672 43.848H17.7352C16.2612 43.848 15.2492 42.99 15.2492 41.681C15.2492 40.383 16.2612 39.514 17.7352 39.514ZM17.9332 42.594H19.8692C20.7162 42.594 21.1562 42.22 21.1562 41.67C21.1562 41.131 20.7162 40.757 19.8692 40.757H17.9332C17.0862 40.757 16.6572 41.131 16.6572 41.67C16.6572 42.22 17.0862 42.594 17.9332 42.594ZM29.5078 39.833V41.736H33.6438V43.023H23.9638V41.736H28.0998V39.833H25.0968V34.047H26.4938V35.719H31.1138V34.047H32.5218V39.833H29.5078ZM31.1138 36.995H26.4938V38.568H31.1138V36.995Z" fill="#CCCCCC"/>
</svg>
