<svg width="42" height="47" viewBox="0 0 42 47" fill="none" xmlns="http://www.w3.org/2000/svg">
<path d="M8.514 38.8824L7.128 38.7504C7.249 38.0024 7.326 37.1884 7.348 36.6714H1.551V35.3954H8.778V36.0004C8.778 36.8584 8.679 37.9254 8.514 38.8824ZM5.434 37.6394V39.3884H10.054V40.6204H0.374V39.3884H4.026V37.6394H5.434ZM4.004 41.4564H6.424C8.074 41.4564 9.042 42.3254 9.042 43.4584C9.042 44.6024 8.074 45.4714 6.424 45.4714H4.004C2.365 45.4714 1.397 44.6024 1.397 43.4584C1.397 42.3254 2.365 41.4564 4.004 41.4564ZM4.301 44.2724H6.127C7.172 44.2724 7.634 43.9534 7.634 43.4474C7.634 42.9634 7.172 42.6554 6.127 42.6554H4.301C3.256 42.6554 2.794 42.9634 2.794 43.4474C2.794 43.9534 3.256 44.2724 4.301 44.2724ZM18.3067 45.3614V35.0874H19.7147V45.3614H18.3067ZM14.8417 37.1334V37.4084C14.8417 38.1454 14.7537 38.8384 14.5777 39.5094L17.4707 42.9634L16.4367 43.8874L14.0277 41.0054C13.5327 42.0504 12.8067 43.0294 11.8607 43.9864L10.8707 43.0514C12.6087 41.2914 13.4667 39.6084 13.4667 37.4084V37.1334H11.2777V35.8464H17.0637V37.1334H14.8417ZM29.5623 38.8054H31.0473V40.0814H29.5623V45.3614H28.1543V35.0874H29.5623V38.8054ZM24.8103 35.6594V37.0564C24.8103 37.8924 24.7223 38.6954 24.5353 39.4654L27.3073 43.0184L26.2403 43.8874L23.9963 41.0274C23.5343 42.0614 22.8633 43.0514 21.9723 43.9864L20.9603 43.0844C22.7093 41.2254 23.4353 39.3774 23.4353 37.0564V35.6594H24.8103ZM35.395 35.8794H37.705V37.0124H31.666V35.8794H33.976V34.9774H35.395V35.8794ZM39.993 35.0874V37.4084H41.489V38.6844H39.993V41.0384H38.596V35.0874H39.993ZM37.276 39.1574V39.2894C37.276 40.4554 36.143 41.0274 34.691 41.0274C33.25 41.0274 32.095 40.4554 32.095 39.2894V39.1574C32.095 37.9914 33.25 37.4084 34.691 37.4084C36.143 37.4084 37.276 37.9914 37.276 39.1574ZM33.47 39.1794V39.2674C33.47 39.6744 34.009 39.9054 34.691 39.9054C35.384 39.9054 35.912 39.6744 35.912 39.2674V39.1794C35.912 38.7834 35.384 38.5304 34.691 38.5304C34.009 38.5304 33.47 38.7834 33.47 39.1794ZM35.505 41.4894H37.749C39.212 41.4894 40.224 42.2484 40.224 43.4914C40.224 44.7344 39.212 45.4714 37.749 45.4714H35.505C34.042 45.4714 33.019 44.7344 33.019 43.4914C33.019 42.2484 34.042 41.4894 35.505 41.4894ZM35.692 44.2174H37.551C38.387 44.2174 38.816 43.9314 38.816 43.4804C38.816 43.0184 38.387 42.7324 37.551 42.7324H35.692C34.867 42.7324 34.427 43.0184 34.427 43.4804C34.427 43.9314 34.867 44.2174 35.692 44.2174Z" fill="#CCCCCC"/>
<path d="M31.3677 0.940401V19.1507C31.3675 19.3217 31.325 19.4895 31.2447 19.6359C31.1644 19.7824 31.0493 19.9021 30.9118 19.9821C30.473 20.2383 30.0172 19.9382 29.6104 19.6707L29.607 19.6681C29.5041 19.6003 29.4047 19.5338 29.3088 19.4798C28.5706 19.0661 27.8071 18.7099 27.0236 18.4135C25.0378 17.6512 22.0866 16.8776 18.2224 16.8424C18.2261 16.8791 18.228 16.916 18.2281 16.9529C18.2281 19.8151 18.7926 22.3269 19.2633 23.9193C19.6838 25.3397 18.7629 27 17.2844 27H14.9844C14.1892 27 13.4305 26.4725 13.1563 25.5821C12.7255 24.1805 11.944 21.1112 11.944 17.2669V16.693C10.4833 16.2396 9.22125 15.2204 8.39104 13.8237C7.56083 12.427 7.21858 10.7472 7.42752 9.09472C7.63645 7.44223 8.38247 5.9287 9.52771 4.83379C10.673 3.73888 12.14 3.13659 13.6579 3.1382H17.9425C21.9472 3.1382 24.9979 2.37211 27.0316 1.61858C27.8145 1.33286 28.5788 0.988784 29.3191 0.588753C29.5086 0.485287 29.6953 0.375556 29.8789 0.259711C29.9338 0.224546 29.9875 0.190638 30.0412 0.152961C30.1705 0.060348 30.3201 0.00778153 30.4743 0.000799387C30.6285 -0.00618276 30.7816 0.0326778 30.9174 0.113287C31.0531 0.193897 31.1666 0.313272 31.2459 0.458835C31.3252 0.604399 31.3672 0.770762 31.3677 0.940401ZM18.2281 14.9586C22.3003 14.995 25.4412 15.8101 27.5892 16.6352C28.4313 16.9592 29.1202 17.2845 29.6538 17.5645V2.50146C29.1202 2.77274 28.4278 3.08796 27.5801 3.40319C25.4343 4.19942 22.2968 4.9856 18.2281 5.02077V14.9586ZM13.6579 5.02202C12.4458 5.02202 11.2833 5.55129 10.4262 6.49338C9.56911 7.43548 9.0876 8.71324 9.0876 10.0456C9.0876 11.3779 9.56911 12.6556 10.4262 13.5977C11.2833 14.5398 12.4458 15.0691 13.6579 15.0691H16.5143V5.02202H13.6579ZM13.6579 17.2669C13.6579 20.8424 14.3868 23.7008 14.7799 24.9793C14.8004 25.0433 14.8644 25.1162 14.9844 25.1162H17.2844C17.3838 25.1162 17.4889 25.0622 17.5689 24.9316C17.6088 24.8699 17.6355 24.7991 17.6468 24.7245C17.658 24.6498 17.6537 24.5733 17.634 24.5008C17.1279 22.7903 16.5143 20.0751 16.5143 16.9529H13.6579V17.2669Z" fill="#CCCCCC"/>
</svg>
