<svg width="20" height="20" viewBox="0 0 20 20" fill="none" xmlns="http://www.w3.org/2000/svg">
<path d="M10 6.875C9.38194 6.875 8.77775 7.05828 8.26385 7.40166C7.74994 7.74504 7.34941 8.2331 7.11288 8.80411C6.87636 9.37513 6.81447 10.0035 6.93505 10.6097C7.05563 11.2158 7.35326 11.7727 7.7903 12.2097C8.22734 12.6467 8.78416 12.9444 9.39035 13.065C9.99654 13.1855 10.6249 13.1236 11.1959 12.8871C11.7669 12.6506 12.255 12.2501 12.5983 11.7362C12.9417 11.2223 13.125 10.6181 13.125 10C13.1225 9.17196 12.7925 8.37854 12.207 7.79302C11.6215 7.20751 10.828 6.87747 10 6.875ZM16.7469 10C16.7453 10.292 16.7239 10.5836 16.6828 10.8727L18.5848 12.3617C18.6676 12.4301 18.7234 12.5257 18.7422 12.6315C18.7611 12.7373 18.7417 12.8463 18.6875 12.9391L16.8883 16.0453C16.8336 16.1373 16.7482 16.207 16.6472 16.2422C16.5462 16.2774 16.436 16.2759 16.3359 16.2379L14.0996 15.3395C13.6339 15.698 13.1243 15.9956 12.5832 16.225L12.2488 18.5992C12.2301 18.7056 12.1751 18.8021 12.093 18.8724C12.011 18.9426 11.9072 18.9822 11.7992 18.9844H8.20079C8.09479 18.9823 7.99262 18.9444 7.91096 18.8768C7.82931 18.8092 7.77298 18.7159 7.75118 18.6121L7.4168 16.2379C6.87417 16.0112 6.36421 15.7131 5.9004 15.3516L3.66407 16.25C3.5641 16.2881 3.45392 16.2896 3.3529 16.2545C3.25188 16.2193 3.16648 16.1497 3.11172 16.0578L1.3125 12.952C1.25835 12.8592 1.23895 12.7502 1.25777 12.6444C1.27659 12.5386 1.3324 12.443 1.41524 12.3746L3.31719 10.8855C3.27662 10.5921 3.25523 10.2963 3.25313 10C3.25476 9.708 3.27616 9.41645 3.31719 9.12734L1.41524 7.63828C1.3324 7.56988 1.27659 7.47426 1.25777 7.36849C1.23895 7.26272 1.25835 7.15371 1.3125 7.06094L3.11172 3.95469C3.16642 3.86273 3.25179 3.79301 3.35282 3.75779C3.45384 3.72256 3.56406 3.72409 3.66407 3.76211L5.9004 4.66055C6.36607 4.30196 6.87567 4.00436 7.4168 3.775L7.75118 1.40078C7.76989 1.29443 7.82496 1.19788 7.90696 1.12763C7.98897 1.05738 8.09283 1.01779 8.20079 1.01562H11.7992C11.9052 1.01769 12.0074 1.05562 12.089 1.12323C12.1707 1.19084 12.227 1.28414 12.2488 1.38789L12.5832 3.76211C13.1265 3.98866 13.6372 4.28674 14.1016 4.64844L16.3359 3.75C16.4359 3.71195 16.5461 3.71036 16.6471 3.74551C16.7481 3.78066 16.8335 3.8503 16.8883 3.94219L18.6875 7.04844C18.7417 7.14121 18.7611 7.25023 18.7422 7.35599C18.7234 7.46176 18.6676 7.55738 18.5848 7.62578L16.6828 9.11484C16.7234 9.40819 16.7448 9.70387 16.7469 10Z" fill="#CCCCCC"/>
</svg>
