<svg width="15" height="15" viewBox="0 0 15 15" fill="none" xmlns="http://www.w3.org/2000/svg">
<path d="M7.75334 12.562L11.2678 14.864C11.9115 15.2858 12.6991 14.6622 12.5297 13.8735L11.5981 9.54477L14.7061 6.62838C15.2735 6.09646 14.9687 5.08764 14.2234 5.02344L10.133 4.64743L8.53246 0.557141C8.24452 -0.185714 7.26215 -0.185714 6.97422 0.557141L5.37363 4.63826L1.28326 5.01427C0.538012 5.07847 0.233139 6.08729 0.800541 6.61921L3.90855 9.5356L2.97699 13.8643C2.80762 14.653 3.59521 15.2767 4.23883 14.8548L7.75334 12.562Z" fill="#CCCCCC"/>
<path d="M7.7027 2.39735e-05C7.52291 -0.00126312 7.34643 0.0493006 7.19373 0.145855C7.04103 0.24241 6.91835 0.381003 6.83992 0.545571L4.98148 4.37713L0.824542 4.99124C0.64669 5.01751 0.479615 5.09388 0.342218 5.21172C0.204822 5.32955 0.102587 5.48414 0.0470795 5.658C-0.00842782 5.83187 -0.0149921 6.01806 0.0281291 6.19552C0.0712504 6.37298 0.162336 6.53462 0.291082 6.66216L3.29925 9.64357L2.58862 13.8552C2.55828 14.0353 2.57808 14.2204 2.6458 14.3897C2.71351 14.559 2.82643 14.7056 2.97179 14.813C3.11715 14.9204 3.28916 14.9843 3.46835 14.9975C3.64755 15.0106 3.82679 14.9725 3.98582 14.8875L7.7027 12.8992V2.39735e-05Z" fill="#FFD233"/>
</svg>
