<svg width="84" height="84" viewBox="0 0 84 84" fill="none" xmlns="http://www.w3.org/2000/svg">
<circle cx="42" cy="42" r="42" fill="#FFD77C"/>
<path d="M63.9375 56.944C63.9375 63.1412 54.0656 68.1164 42 68.1164C29.85 68.1164 20.0625 63.1412 20.0625 56.944C20.0625 50.7468 29.85 45.7716 42 45.7716C54.0656 45.7716 63.9375 50.7468 63.9375 56.944Z" fill="#94989B"/>
<path d="M67.3125 52.4052C67.3125 59.9117 56.0063 66.1089 42 66.1089C27.9937 66.1089 16.6875 59.999 16.6875 52.4052C16.6875 44.8987 27.9937 38.7015 42 38.7015C56.0063 38.7015 67.3125 44.8115 67.3125 52.4052Z" fill="#C7D7D7"/>
<path d="M62.8407 51.2705C62.8407 56.333 53.475 60.3481 42 60.3481C30.525 60.3481 21.1594 56.2457 21.1594 51.2705C21.1594 46.208 30.525 42.1929 42 42.1929C53.475 42.1056 62.8407 46.208 62.8407 51.2705Z" fill="#94989B"/>
<path d="M57.3562 58.0787C54.9937 58.5151 54.5718 61.3082 47.7374 60.6099C44.5312 60.2608 42.6749 61.3082 38.7093 61.6573C34.7437 62.0065 13.4812 57.8168 22.0874 47.7791C30.6093 37.7414 62.9249 42.3675 63.2624 48.8265C63.5999 55.3729 59.2124 57.7295 57.3562 58.0787Z" fill="#D3976E"/>
<path d="M22.0876 30.9332C21.3282 31.4569 22.3407 31.4569 22.3407 31.4569C22.3407 31.4569 30.947 28.402 31.3688 29.2748C31.7907 30.1477 22.6782 32.7662 22.847 33.8136C23.0157 34.861 32.1282 30.8459 32.297 31.7188C32.5501 32.5916 24.0282 35.9084 24.0282 35.9084C24.0282 35.9084 23.3532 36.6067 24.197 36.5194C35.1657 35.1229 38.6251 31.7188 38.6251 31.7188C38.6251 31.7188 39.3845 31.1078 39.1313 30.3222C39.1313 30.235 63.0938 21.4192 66.3001 20.1972C67.9032 19.5862 66.2157 15.222 64.697 15.833C61.4063 16.9677 37.4438 25.958 37.4438 25.958C37.1907 25.1725 36.1782 25.1725 36.1782 25.1725C36.1782 25.1725 31.3688 24.8233 22.0876 30.9332Z" fill="#839391"/>
<path d="M63.6 48.7391C63.3469 46.9062 61.3219 45.2478 57.6094 43.8512C55.4156 42.0182 52.2938 41.4945 50.3531 41.32C48.5813 41.2327 46.8094 41.32 45.1219 41.6691C44.3625 41.7564 43.5188 40.8835 42.8438 41.1454C39.2156 40.098 35.925 42.0182 33.5625 42.0182C31.0313 42.0182 20.9063 43.7639 20.9906 49.1756C20.5688 49.6993 18.375 51.5322 21.75 52.9288C20.9063 53.8889 20.7375 54.849 20.8219 55.46C20.9906 56.8566 22.0875 58.1659 24.1969 59.2133C27.3188 60.7844 30.0188 61.3081 32.1281 61.3081C35.25 61.1335 36.7688 64.4503 43.6875 63.7521L42.8438 62.0064C42.7594 62.0064 40.3125 62.0064 37.7813 60.2607C37.8656 60.2607 52.8 59.2133 54.6563 58.9514C58.875 58.515 61.9125 54.9363 62.25 53.2779C62.5031 52.0559 63.7688 49.6993 63.6 48.7391ZM37.1906 43.5021C37.4438 43.5021 32.2125 45.7715 29.3438 47.168L29.85 44.8986H29.9344C31.9594 44.2003 34.4063 43.7639 37.1906 43.5021ZM51.8719 57.3803C51.8719 57.3803 50.8594 56.2456 50.9438 56.071C52.0406 55.8965 53.0531 55.7219 54.0656 55.46C53.6438 56.3329 52.8844 56.9439 51.8719 57.3803ZM51.7875 57.3803C51.7031 57.3803 51.7031 57.3803 51.6188 57.4676C51.6188 57.4676 51.7031 57.4676 51.7875 57.3803ZM36.0938 52.6669C36.4313 52.7542 43.4344 54.4126 46.05 54.849C44.5313 55.8965 39.4688 56.7693 36.0938 52.6669ZM28.5 58.515C28.5 58.515 26.7281 55.9837 26.8125 55.0236C27.4031 55.5473 29.4281 56.1583 30.1875 56.3329C30.2719 56.5075 31.5375 58.8641 31.875 59.3878C30.1875 59.3878 28.5 58.515 28.5 58.515ZM29.4281 52.2305C29.4281 52.8415 29.4281 53.4525 29.5969 54.1508C28.0781 53.8016 26.8125 53.1906 25.9688 52.4051C26.8125 52.1432 27.9938 52.0559 29.4281 52.2305ZM47.9063 42.8038C52.9688 44.5495 56.175 46.9934 56.3438 47.168C56.175 47.5172 56.5125 48.5646 56.3438 48.9137C55.6688 48.5646 50.4375 44.5495 47.0625 43.6766C47.6531 43.5893 47.9063 42.8038 47.9063 42.8038ZM55.5 52.4051C55.9219 52.0559 58.0313 49.7865 58.0313 49.7865H59.7188C60.225 49.7865 57.4406 52.9288 57.1875 53.2779C56.9344 53.1906 55.7531 52.4924 55.5 52.4051ZM54.7406 56.071C54.9094 55.8092 54.9938 55.5473 55.0781 55.2855C55.5 55.1982 55.9219 55.0236 56.3438 54.9363C56.5969 55.3728 56.85 55.7219 57.1875 56.1583C56.5125 56.5075 55.6688 56.8566 54.7406 57.2057C54.3188 57.3803 53.8969 57.4676 53.5594 57.6421C53.9813 57.1184 54.4875 56.682 54.7406 56.071ZM25.0406 49.0883C24.7875 49.4374 24.6188 49.6993 24.5344 50.0484C24.0281 49.9611 23.5219 49.7865 23.0156 49.612C22.6781 49.4374 22.5094 49.3501 22.2563 49.1756C22.9313 48.4773 23.8594 47.779 25.0406 47.0807V49.0883ZM24.2813 55.0236C24.3656 54.6745 24.6188 54.3253 25.0406 53.9762C24.7875 55.1982 25.2094 56.5075 26.1375 57.7294C26.0531 57.7294 25.9688 57.6421 25.9688 57.6421C24.7031 56.7693 24.1969 55.7219 24.2813 55.0236ZM31.0313 52.2305C31.7906 52.4051 36.0094 54.849 36.8531 55.1109C36.0938 55.1109 32.7188 55.0236 31.0313 54.1508C30.8625 53.5398 30.8625 52.9288 31.0313 52.2305ZM49.0031 56.2456C48.9188 56.5947 49.0031 56.8566 49.1719 57.1184C49.5094 57.6422 48.4969 57.8167 47.2313 57.1184C46.8094 56.8566 46.6406 56.5947 46.5563 56.3329C47.3156 56.4202 48.1594 56.3329 49.0031 56.2456ZM58.7063 55.1982C58.5375 54.9363 58.2844 54.6745 58.0313 54.3253C58.2844 54.2381 58.5375 54.1508 58.7906 53.9762C59.2125 54.0635 59.4656 54.2381 59.6344 54.3253C59.4656 54.5872 59.1281 54.849 58.7063 55.1982ZM33.1406 57.8167C32.55 57.5549 32.2969 56.9439 31.9594 56.5075C37.7813 55.8965 44.7 58.1659 45.375 58.515C45.4594 58.6023 36.9375 59.3878 33.1406 57.8167ZM61.4906 51.3577C62.25 48.9137 58.9594 46.3825 58.875 46.2952C59.7188 46.2952 63.0938 48.0409 61.4906 51.3577Z" fill="#FFE299"/>
<path d="M25.9688 44.5495V31.7187C25.9688 31.3696 25.4626 31.1077 24.9563 31.1077C24.4501 31.1077 23.9438 31.3696 23.9438 31.7187V45.4224L25.9688 44.5495ZM28.5001 50.6594V27.2672C28.5001 26.9181 27.9938 26.6562 27.4876 26.6562C26.9813 26.6562 26.4751 26.9181 26.4751 27.2672V50.6594H28.5001ZM30.947 37.4795C31.5376 37.4795 31.9595 37.2176 31.9595 36.8685V25.6961C31.9595 25.3469 31.4532 25.0851 30.947 25.0851C30.4407 25.0851 29.9345 25.3469 29.9345 25.6961V36.7812C29.9345 37.2176 30.4407 37.4795 30.947 37.4795Z" fill="#FFE299"/>
<path d="M27.8249 49.8739C28.6686 51.6196 29.9343 50.5722 30.5249 52.4924C31.1155 54.4127 32.5499 52.3179 33.8155 53.4525C35.0811 54.5872 38.4561 53.9763 39.8905 54.2381C41.3249 54.5 41.4936 53.4525 43.1811 53.9763C44.8686 54.5872 44.6155 52.3178 48.5811 53.8017C49.8468 54.3254 49.5093 52.3179 51.6186 52.8416C53.728 53.3653 52.2093 51.1832 54.8249 51.3577C57.4405 51.5323 52.7999 45.8588 50.5218 46.5571C48.2436 47.2553 45.4593 42.6293 42.0843 42.6293C35.0811 42.8038 26.6436 47.6918 27.8249 49.8739Z" fill="#EC6430"/>
<path d="M33.1406 45.8588L32.55 47.1681L33.1406 48.4773L33.7313 47.1681L33.1406 45.8588ZM35.6719 43.6767L35.25 44.5495L35.6719 45.4224L36.0938 44.5495L35.6719 43.6767ZM38.2031 46.2952L37.7812 47.1681L38.2031 48.0409L38.625 47.1681L38.2031 46.2952ZM39.0469 42.3674L38.4562 43.6767L39.0469 44.986L39.6375 43.6767L39.0469 42.3674ZM41.5781 44.986L40.9875 46.2952L41.5781 47.6045L42.1688 46.2952L41.5781 44.986ZM44.1094 42.8039L43.6875 43.6767L44.1094 44.5495L44.5312 43.6767L44.1094 42.8039ZM46.6406 46.2952L46.2188 47.1681L46.6406 48.0409L47.0625 47.1681L46.6406 46.2952ZM49.1719 45.8588L48.5812 47.1681L49.1719 48.4773L49.7625 47.1681L49.1719 45.8588ZM52.5469 48.0409L52.125 48.9138L52.5469 49.7866L52.9688 48.9138L52.5469 48.0409ZM44.1094 48.0409L43.6875 48.9138L44.1094 49.7866L44.5312 48.9138L44.1094 48.0409ZM40.7344 49.7866L40.3125 50.6595L40.7344 51.5323L41.1562 50.6595L40.7344 49.7866ZM35.6719 48.0409L35.25 48.9138L35.6719 49.7866L36.0938 48.9138L35.6719 48.0409ZM30.6094 47.1681L30.1875 48.0409L30.6094 48.9138L31.0312 48.0409L30.6094 47.1681Z" fill="#8CC63E"/>
</svg>
