<svg width="84" height="84" viewBox="0 0 84 84" fill="none" xmlns="http://www.w3.org/2000/svg">
<circle cx="42" cy="42" r="42" fill="#FFD77C"/>
<path d="M16.3247 42.2869C16.6115 52.5806 23.4923 67.4095 42.2489 67.2197C60.5245 67.034 67.882 51.9056 67.3083 41.0381C66.7303 30.1706 58.1704 16.7972 41.2406 16.8942C24.3065 16.987 16.0125 31.2211 16.3247 42.2869Z" fill="url(#paint0_radial_525_491)"/>
<path d="M34.9166 24.3404C35.0348 24.5007 35.5705 24.3066 35.8237 24.3193C36.0768 24.3319 36.351 24.4332 36.3848 24.6652C36.4185 24.893 36.1654 24.931 36.0177 25.2263C35.9418 25.3782 35.4313 26.4033 35.7098 26.5215C36.0768 26.6818 36.2582 26.3147 36.3384 26.1418C36.4185 25.9688 36.6126 25.6018 36.6126 25.6018C36.6126 25.6018 36.832 25.1208 37.1188 25.1546C37.6335 25.2136 37.4268 25.9477 37.4268 25.9477C37.4268 25.9477 37.3129 26.4961 37.5871 26.6227C37.8613 26.7493 38.1271 26.6565 38.2748 26.6016C38.4224 26.5425 38.6755 26.6016 38.9751 26.475C39.2746 26.3485 39.4012 26.2346 39.6037 26.1544C39.8104 26.0743 39.9918 26.1207 40.0171 25.935C40.0382 25.7536 39.8568 25.568 39.5488 25.5469C39.2409 25.5258 38.8612 25.8802 38.7346 25.9941C38.608 26.108 38.1946 26.1882 38.1482 25.8929C38.1018 25.5975 38.3676 25.5722 38.5616 25.4583C38.7557 25.3444 38.8823 25.1841 38.8823 25.1841C38.8823 25.1841 38.5279 24.7243 38.4224 24.6905C38.3212 24.6568 37.9077 24.7833 37.4943 24.4965C37.1104 24.2307 36.9543 23.8679 36.853 23.775C36.7518 23.6822 36.292 23.5346 35.8448 23.6274C35.3976 23.7202 34.731 24.0872 34.9166 24.3404Z" fill="#4B9EEC"/>
<path d="M17.3372 34.8197C19.8515 26.2767 27.0108 18.0543 38.8275 17.0039L38.8865 17.5692C38.8865 17.5692 39.9707 17.8603 40.4981 17.8898C41.0254 17.9193 41.5823 17.9489 41.7553 17.8898C41.9325 17.8308 42.6918 16.9153 42.6918 16.9153C45.7209 17.0418 48.4631 17.6072 50.9268 18.5142C50.9268 18.5142 51.0197 19.5183 50.8804 19.725C50.7412 19.9317 50.7665 20.7628 50.834 21.0876C50.9015 21.4125 51.1589 22.5431 51.0661 23.235C50.9732 23.9268 51.1125 24.9436 50.6273 24.8508C50.1422 24.7579 49.7034 23.0029 49.3786 22.657C49.0537 22.3111 49.5178 21.4547 49.2857 20.9484C49.0537 20.4422 48.9145 20.2101 48.3872 20.4168C47.8598 20.6236 47.7164 21.6656 47.1848 21.8723C46.6532 22.079 46.1681 21.6192 45.8686 21.6192C45.569 21.6192 44.392 22.1508 44.16 22.8426C43.9279 23.5345 44.0207 24.0661 44.6451 24.1378C45.2695 24.2053 45.1978 23.8593 45.5437 23.9522C45.8897 24.045 45.9825 24.8972 46.1217 25.2009C46.2609 25.5004 46.514 25.8253 46.5393 26.4243C46.5604 27.0234 46.2862 28.019 45.9867 28.365C45.6872 28.7109 45.5268 29.6348 45.0881 29.8879C44.6493 30.1411 44.0967 30.0018 43.7043 30.1411C43.312 30.2803 43.4512 30.8329 43.08 31.1325C42.7087 31.432 42.3417 31.5501 42.3417 31.5501C42.3417 31.5501 43.2192 32.4487 43.1981 33.0984C43.177 33.7439 43.2192 34.1615 42.4345 34.5075C41.6498 34.8534 41.789 34.3936 41.8101 33.7692C41.8312 33.1448 41.789 32.8242 41.789 32.8242C41.789 32.8242 41.2575 32.6639 41.1436 32.5458C41.0297 32.4318 40.9832 32.2673 40.9832 32.2673C40.9832 32.2673 40.2914 32.1281 40.1522 32.107C40.0129 32.0859 39.7809 32.1745 39.667 31.9467C39.5531 31.7147 39.8737 31.3476 39.7134 31.2548C39.5531 31.162 38.6292 31.8075 38.4436 32.1112C38.2579 32.4108 38.6039 32.6892 38.7431 32.8495C38.8823 33.0098 39.3211 32.8495 39.3422 33.0562C39.3633 33.2629 39.2493 33.7017 39.1101 33.8409C38.9709 33.9801 38.7642 34.2122 38.7853 34.3725C38.8064 34.5328 39.5953 35.1361 39.6839 35.3428C39.7725 35.5495 40.1437 35.5031 40.169 36.1064C40.1901 36.7054 40.0087 37.1231 39.7514 37.4226C39.4982 37.7222 39.2198 38.0217 39.1523 38.0681C39.0848 38.1145 38.6207 38.8992 38.2748 39.1776C37.9289 39.4561 37.1653 40.0762 36.5873 40.2618C36.0093 40.4475 35.0095 40.342 34.5286 40.6753C34.0476 41.0086 34.1193 41.5823 33.7861 41.8565C33.4528 42.1308 33.2545 42.2193 33.0267 41.9325C32.7989 41.6456 32.8748 41.325 33.0098 41.2068C33.1448 41.0845 33.4022 40.9495 33.1322 40.7681C32.8579 40.5867 32.647 40.7681 32.3601 40.9664C32.0733 41.1647 31.6472 41.3925 31.799 41.8439C31.9509 42.2995 32.6301 42.8437 32.8579 43.177C33.0858 43.5103 33.2208 43.7845 33.2081 44.1178C33.1912 44.4511 33.284 44.527 32.9676 44.7843C32.6512 45.0417 32.6048 44.9658 32.0733 45.2526C31.5417 45.5395 31.1662 45.9192 30.8751 45.7504C30.584 45.5817 30.525 45.2948 30.525 45.2948C30.525 45.2948 29.7529 44.3709 29.542 44.2022C29.3311 44.0376 28.7826 43.9153 28.7236 44.0503C28.6645 44.1853 28.6772 44.7928 28.7404 45.067C28.7995 45.3412 28.8923 45.78 28.8923 45.9318C28.8923 46.0837 29.3775 46.4465 29.6517 46.5984C29.9259 46.7503 30.1664 46.7039 30.3351 46.9612C30.4997 47.2186 30.7739 47.7628 30.9089 48.1129C31.0439 48.4631 31.4995 49.0073 31.4995 49.0073C31.4995 49.0073 32.4993 49.9143 32.5922 50.1422C32.685 50.37 33.1237 50.5683 33.0183 50.9142C32.9128 51.2643 32.7609 51.5217 32.3348 51.4879C31.9087 51.4584 31.2422 51.0323 31.0312 50.9142C30.8203 50.7918 30.3056 50.5809 30.3056 50.5809C30.3056 50.5809 29.0779 49.3237 28.9261 49.1423C28.7742 48.9609 28.0022 48.3829 27.8672 48.1425C27.7322 47.902 27.0656 47.3409 26.9601 47.1595C26.8547 46.9781 26.977 46.7334 27.1879 46.7967C27.3989 46.8558 28.2806 47.6151 28.4747 47.767C28.6729 47.9189 29.2762 48.1298 29.2762 48.1298C29.2762 48.1298 28.7447 47.265 28.5506 47.0245C28.3523 46.784 27.9304 46.417 27.825 45.645C27.7195 44.8729 27.6604 44.1768 27.614 44.0081C27.5676 43.8393 27.1879 42.9028 27.0698 42.7509C26.9517 42.599 26.4201 42.8733 26.2218 42.5864C26.0236 42.2995 26.1459 41.0128 26.1459 41.0128C26.1459 41.0128 25.2051 39.2704 24.9942 39.2114C24.7833 39.1523 24.0872 39.0595 23.8129 39.2114C23.5387 39.3633 22.6317 40.1648 22.4967 40.2872C22.3617 40.4095 21.5433 41.1056 21.3745 41.1815C21.21 41.2575 20.9653 41.3798 20.9653 41.3798C20.9653 41.3798 20.767 42.3797 20.6911 42.4851C20.6151 42.5906 20.5561 43.3626 20.4506 43.6368C20.3451 43.9111 20.1933 44.4089 19.8431 44.3962C19.4929 44.3793 19.5267 44.1389 19.417 43.4133C19.3115 42.6876 18.9614 41.73 18.8854 40.9748C18.8095 40.2154 18.6872 38.1272 18.6281 38.0048C18.569 37.8825 18.1893 38.0343 18.1725 37.6715C18.1556 37.3087 18.3454 36.0262 18.1893 35.6718C17.9911 35.2204 17.3372 34.8197 17.3372 34.8197Z" fill="#7ADD8A"/>
<path d="M17.3372 34.8197C19.8515 26.2767 27.0108 18.0544 38.8275 17.0039C38.8275 17.0039 40.3758 20.2945 40.515 20.4211C41.3292 21.1594 44.4004 22.1508 44.1684 22.8427C43.9364 23.5345 44.0292 24.0661 44.6536 24.1378C45.2779 24.2053 45.2062 23.8594 45.5522 23.9522C45.8981 24.045 45.9909 24.8972 46.1301 25.2009C46.2693 25.5005 46.5225 25.8253 46.5478 26.4244C46.5689 27.0234 46.2947 28.0191 45.9951 28.365C45.6956 28.7109 45.5353 29.6348 45.0965 29.888C44.6578 30.1411 44.1051 30.0019 43.7128 30.1411C43.3204 30.2803 43.4597 30.833 43.0884 31.1325C42.7172 31.432 42.3501 31.5502 42.3501 31.5502C42.3501 31.5502 43.2276 32.4487 43.2065 33.0984C43.1854 33.7439 43.2276 34.1616 42.4429 34.5075C41.6583 34.8534 41.7975 34.3936 41.8186 33.7692C41.8397 33.1448 41.7975 32.8242 41.7975 32.8242C41.7975 32.8242 41.2659 32.6639 41.152 32.5458C41.0381 32.4319 40.9917 32.2673 40.9917 32.2673C40.9917 32.2673 40.2998 32.1281 40.1606 32.107C40.0214 32.0859 39.7893 32.1745 39.6754 31.9467C39.5615 31.7147 39.8822 31.3477 39.7218 31.2548C39.5615 31.162 38.6376 31.8075 38.452 32.1112C38.2664 32.4108 38.6123 32.6892 38.7515 32.8495C38.8908 33.0098 39.3295 32.8495 39.3506 33.0562C39.3717 33.263 39.2578 33.7017 39.1186 33.8409C38.9793 33.9802 38.7726 34.2122 38.7937 34.3725C38.8148 34.5328 39.6037 35.1361 39.6923 35.3428C39.7809 35.5495 40.1522 35.5031 40.1775 36.1064C40.1986 36.7055 40.0172 37.1231 39.7598 37.4227C39.5067 37.7222 39.2283 38.0217 39.1608 38.0681C39.0933 38.1145 38.6292 38.8992 38.2833 39.1777C37.9373 39.4561 37.1737 40.0762 36.5958 40.2619C36.0178 40.4475 35.0179 40.342 34.537 40.6753C34.0561 41.0086 34.1278 41.5823 33.7945 41.8566C33.4612 42.1308 33.2629 42.2194 33.0351 41.9325C32.8073 41.6456 32.8833 41.325 33.0183 41.2069C33.1533 41.0845 33.4106 40.9495 33.1406 40.7681C32.8664 40.5867 32.6554 40.7681 32.3686 40.9664C32.0817 41.1647 31.6556 41.3925 31.8075 41.8439C31.9593 42.2995 32.6386 42.8437 32.8664 43.177C33.0942 43.5103 33.2292 43.7845 33.2165 44.1178C33.1997 44.4511 33.2925 44.527 32.9761 44.7844C32.6597 45.0417 32.6133 44.9658 32.0817 45.2527C31.5501 45.5395 31.1747 45.9192 30.8836 45.7505C30.5925 45.5817 30.5334 45.2948 30.5334 45.2948C30.5334 45.2948 29.7614 44.3709 29.5504 44.2022C29.3395 44.0377 28.7911 43.9153 28.732 44.0503C28.6729 44.1853 28.6856 44.7928 28.7489 45.067C28.8079 45.3412 28.9008 45.78 28.9008 45.9319C28.9008 46.0837 29.3859 46.4466 29.6601 46.5984C29.9343 46.7503 30.1748 46.7039 30.3436 46.9612C30.5081 47.2186 30.7823 47.7628 30.9173 48.113C31.0523 48.4631 31.5079 49.0073 31.5079 49.0073C31.5079 49.0073 32.5078 49.9144 32.6006 50.1422C32.6934 50.37 33.1322 50.5683 33.0267 50.9142C32.9212 51.2644 32.7693 51.5217 32.3433 51.488C31.9172 51.4584 31.2506 51.0323 31.0397 50.9142C30.8287 50.7919 30.314 50.5809 30.314 50.5809C30.314 50.5809 29.0864 49.3237 28.9345 49.1423C28.7826 48.9609 28.0106 48.383 27.8756 48.1425C27.7406 47.902 27.074 47.3409 26.9686 47.1595C26.8631 46.9781 26.9854 46.7334 27.1964 46.7967C27.4073 46.8558 28.289 47.6152 28.4831 47.767C28.6814 47.9189 29.2847 48.1298 29.2847 48.1298C29.2847 48.1298 28.7531 47.265 28.559 47.0245C28.3608 46.7841 27.9389 46.417 27.8334 45.645C27.7279 44.873 27.6689 44.1769 27.6225 44.0081C27.5761 43.8394 27.1964 42.9028 27.0783 42.7509C26.9601 42.5991 26.4286 42.8733 26.2303 42.5864C26.032 42.2995 26.1543 41.0128 26.1543 41.0128C26.1543 41.0128 25.2136 39.2705 25.0026 39.2114C24.7917 39.1523 24.0956 39.0595 23.8214 39.2114C23.5472 39.3633 22.6401 40.1648 22.5051 40.2872C22.3701 40.4095 21.5517 41.1056 21.3829 41.1816C21.2184 41.2575 20.9737 41.3798 20.9737 41.3798C20.9737 41.3798 20.7754 42.3797 20.6995 42.4852C20.6236 42.5906 20.5645 43.3627 20.459 43.6369C20.3536 43.9111 20.2017 44.4089 19.8515 44.3962C19.5014 44.3794 19.5351 44.1389 19.4254 43.4133C19.32 42.6877 18.9698 41.73 18.8939 40.9748C18.8179 40.2155 18.6956 38.1272 18.6365 38.0048C18.5775 37.8825 18.1978 38.0344 18.1809 37.6716C18.164 37.3087 18.3539 36.0262 18.1978 35.6719C17.9911 35.2205 17.3372 34.8197 17.3372 34.8197Z" fill="url(#paint1_radial_525_491)"/>
<path d="M36.1149 23.4376C35.8449 23.3869 35.6424 23.9438 35.2121 24.2476C34.7776 24.5513 34.3262 24.5851 34.3093 24.7918C34.2924 24.9985 34.7228 25.7157 35.0982 25.7326C35.4737 25.7494 36.0348 25.4246 36.3217 25.1124C36.7182 24.6821 36.811 23.5726 36.1149 23.4376Z" fill="#159FF7"/>
<path d="M46.6534 24.277C46.5479 24.315 46.4298 24.5343 46.4214 24.6904C46.4129 24.9815 46.9529 25.7662 46.974 25.9434C46.9951 26.1206 47.071 26.8757 47.0964 27.1584C47.1259 27.5001 47.1554 27.787 47.3073 27.8123C47.5562 27.8545 47.881 27.3693 47.9485 27.1289C48.0203 26.8884 48.1679 25.9729 48.1004 25.7831C48.0287 25.5932 47.9485 25.3064 47.687 25.0195C47.3748 24.682 46.877 24.1968 46.6534 24.277ZM47.5393 28.2932C47.3115 28.3523 47.2904 28.694 47.2271 29.3184C47.1681 29.9385 47.2356 30.9342 47.2356 31.2253C47.2356 31.5164 47.206 31.7189 47.206 31.7189C47.206 31.7189 46.9656 32.4107 46.9445 32.512C46.9234 32.6132 46.3834 33.0942 46.2104 33.2629C46.0417 33.4317 45.5692 33.824 45.5692 33.824C45.5692 33.824 44.949 33.7228 44.6748 33.8029C43.6496 34.1025 43.599 34.6171 43.599 34.6171C43.599 34.6171 43.3079 34.845 43.2699 35.0896C43.1982 35.5115 43.6201 35.8617 44.0209 35.811C44.4343 35.7604 44.9532 35.4187 45.257 35.3596C45.5565 35.3006 46.0712 35.1487 46.4804 34.7395C46.8896 34.3303 47.3748 33.6468 47.5056 33.554C47.6364 33.4612 48.0076 33.3515 48.0582 32.6596C48.1089 31.9678 48.2903 30.39 48.2607 30.2929C48.2312 30.1917 48.8935 29.871 48.9146 29.7107C48.9357 29.5504 49.0665 29.0779 48.9146 29.0484C48.7628 29.0189 48.3198 28.9471 48.151 28.8585C47.7798 28.656 47.7798 28.2342 47.5393 28.2932ZM38.296 41.2195C38.1948 41.2364 38.2074 41.9114 38.2159 42.2742C38.2159 42.3501 38.0345 42.5737 38.2665 43.1559C38.4479 43.6115 38.8065 43.89 38.8065 43.89C38.8065 43.89 38.6757 45.2442 39.0259 45.6871C39.1314 45.8221 39.6587 45.6871 39.819 45.8264C39.9793 45.9656 40.1523 46.1343 40.359 46.206C40.5615 46.2778 41.1732 46.2862 41.2618 46.1259C41.3504 45.9656 41.072 45.5353 41.0593 45.4425C41.0509 45.3539 41.2618 45.1303 41.1901 44.8898C41.1184 44.6493 39.9878 43.1643 39.7853 43.1053C39.5828 43.0462 39.4646 43.1854 39.2453 42.9365C39.0934 42.7678 38.9626 42.4767 38.9837 42.0337C39.009 41.5907 38.8065 41.1267 38.296 41.2195ZM36.4693 44.1389C36.2542 44.3582 35.9968 45.3328 35.9378 45.4635C35.8787 45.5943 35.2459 46.206 34.9928 46.3748C34.7565 46.5351 34.2081 47.0793 34.149 47.227C34.0899 47.3789 33.5879 47.2059 33.3053 47.2481C33.0648 47.2818 32.6218 47.67 32.5543 47.8387C32.4826 48.0075 32.626 48.3112 32.7948 48.6107C32.9635 48.9103 33.3348 49.2225 33.4571 49.3532C33.5795 49.484 33.9507 49.7793 34.0604 49.8468C34.2924 49.986 34.8451 49.7076 35.2459 49.8173C35.6467 49.927 36.0095 50.1253 36.1276 50.0662C36.4778 49.8975 36.7182 49.0917 36.9418 48.539C37.2624 47.7332 37.3131 47.556 37.3131 47.556C37.3131 47.556 37.562 47.3746 37.6928 47.0751C37.8235 46.7756 37.7139 46.3326 37.8151 45.6914C37.9164 45.0501 38.0303 44.8096 38.1062 44.4679C38.1779 44.1557 38.1864 43.9068 38.0176 43.8267C37.8489 43.7465 36.9503 43.6453 36.4693 44.1389ZM37.7814 49.9312C37.7307 49.851 37.5114 49.5515 37.5789 48.906C37.6506 48.2648 37.8615 47.8514 37.8784 47.7712C37.8995 47.691 38.6715 47.1679 38.9542 47.1679C39.2368 47.1679 39.4351 47.2987 39.4646 47.3493C39.4942 47.4 39.587 47.4885 39.7346 47.459C39.8865 47.4295 40.0046 47.1468 39.9751 47.0456C39.9456 46.9443 40.0046 46.7629 40.1354 46.7545C40.2662 46.746 40.2873 47.0245 40.2746 47.286C40.2662 47.5476 40.2324 47.6278 40.0131 47.729C39.7937 47.8303 39.1398 47.9695 38.971 48.21C38.8023 48.4504 38.912 49.0031 38.912 49.0917C38.912 49.1803 39.3043 49.3912 39.3339 49.6148C39.3676 49.8595 39.2621 50.0493 38.5112 50.0746C37.9754 50.1 37.7814 49.9312 37.7814 49.9312ZM41.4264 47.5814C41.4264 47.5814 40.9665 47.7501 40.8864 47.8134C40.8062 47.8725 40.8231 48.1003 40.9074 48.1846C41.0298 48.307 41.5403 48.1931 41.8018 48.2268C42.0296 48.2521 42.2617 48.307 42.5443 48.307C42.7932 48.307 42.9156 47.9146 42.8354 47.805C42.7553 47.6953 42.3249 46.8937 42.4135 46.7418C42.5021 46.59 42.654 46.3284 42.6456 46.2103C42.6287 46.0078 42.1056 46.0415 41.941 46.1301C41.7807 46.2187 41.612 46.59 41.4896 46.7714C41.3673 46.9485 41.4264 47.5814 41.4264 47.5814ZM33.5289 50.9226C33.4571 50.9564 33.1871 51.4331 33.3264 51.6271C33.4656 51.817 33.6174 51.7959 34.8915 51.817C36.1656 51.8381 36.4904 51.7832 36.5664 51.7453C36.6676 51.6946 37.5915 51.6651 37.9923 51.4035C38.3931 51.142 38.9457 51.0323 39.1145 51.0239C39.2832 51.0154 39.6165 51.0323 39.7262 50.9521C39.8359 50.872 40.1987 50.7412 40.1185 50.4585C40.0384 50.1759 39.8274 50.4585 38.7432 50.5092C37.8278 50.5514 36.136 50.9437 35.8829 50.9521C35.5539 50.9648 33.6596 50.8635 33.5289 50.9226ZM41.1268 49.7203C40.7556 50.0493 40.5446 50.2434 40.7049 50.4417C40.8231 50.5893 41.207 50.3193 41.439 50.121C41.671 49.9185 42.1267 49.657 41.9326 49.4292C41.747 49.2182 41.401 49.4714 41.1268 49.7203ZM43.464 46.4465C43.4176 46.514 43.4851 46.86 43.5146 46.9485C43.5442 47.0371 43.9576 47.1806 44.1981 47.459C44.4385 47.7417 44.4385 48.0328 44.5103 48.0792C44.582 48.1298 45.6535 48.0876 45.8771 48.0496C46.1007 48.0117 46.4678 47.9906 46.9318 47.9779C47.3917 47.9695 48.0709 48.0032 48.1848 48.0285C48.3535 48.0707 48.5645 48.1804 48.6278 48.3576C48.6657 48.4757 48.7206 48.6951 48.6193 48.809C48.5181 48.9229 48.3198 48.8976 48.2987 49.1001C48.2776 49.3026 48.2776 49.4798 48.5603 49.4629C48.8429 49.4418 49.7457 49.4925 49.9651 49.484C50.1845 49.4756 50.6696 49.6865 50.9101 49.5642C51.1506 49.4418 51.8045 49.2815 51.8129 49.0706C51.8214 48.8596 51.6526 48.809 51.7412 48.5981C51.8467 48.3492 52.0914 48.3956 52.3529 48.5264C52.6145 48.6571 53.3443 49.2309 53.5468 49.2478C53.7493 49.2646 54.2176 49.1592 54.2387 48.9862C54.2598 48.8175 54.0278 48.6656 53.8885 48.6656C53.7493 48.6656 53.4878 48.5854 53.4076 48.5264C53.3274 48.4673 52.7157 47.6742 52.6145 47.5645C52.5132 47.4548 52.5639 47.0245 52.5343 46.9528C52.5048 46.881 51.9817 46.8515 51.9015 46.7714C51.8214 46.6912 50.8089 45.8685 50.4376 45.7589C50.0664 45.6492 47.2271 45.78 47.0837 45.8475C46.9445 45.9192 46.1598 47.1426 45.8603 47.1004C45.5607 47.0582 45.6282 46.2187 45.2485 46.0162C44.8689 45.8137 43.5737 46.2862 43.464 46.4465ZM49.1467 63.2709C49.0328 63.3004 48.6024 63.1781 48.4801 63.3173C48.3578 63.4523 48.2523 63.8615 48.2818 64.0598C48.3114 64.2581 48.5265 64.6504 48.8429 64.68C49.2859 64.7221 49.9356 64.026 49.9187 63.7096C49.906 63.3932 49.5095 63.1781 49.1467 63.2709ZM54.3315 62.7562C54.1037 62.8532 53.9223 62.136 53.6481 62.1487C53.4498 62.1614 52.8507 62.6423 52.3445 62.9967C51.8214 63.3637 51.5092 63.465 51.4206 63.8446C51.3953 63.9501 51.467 64.2539 51.9521 64.3129C52.4373 64.372 54.1965 63.3553 54.5298 63.1317C54.8631 62.9081 56.1076 62.1318 56.154 61.8407C56.2004 61.5539 55.7912 60.8409 55.7617 60.6426C55.7321 60.4443 55.5929 59.9465 55.4284 59.9592C55.2596 59.976 55.1331 60.1575 55.171 60.5667C55.1879 60.7692 55.1584 61.056 55.1499 61.1362C55.112 61.4189 54.9981 61.4653 54.8884 61.5285C54.7492 61.6087 54.5635 61.6593 54.4749 61.9335C54.3526 62.2837 54.6226 62.6339 54.3315 62.7562ZM47.7039 51.9014C47.6828 52.2009 48.1131 52.5764 48.2818 52.7325C48.5814 53.0109 48.999 53.3568 49.4167 53.3779C49.8343 53.399 50.2478 53.2176 50.3406 53.0067C50.4334 52.8 50.9649 51.7368 50.9649 51.4584C50.9649 51.18 51.1506 50.4881 51.1717 50.3025C51.1928 50.1168 51.332 50.0493 51.564 50.0493C51.796 50.0493 51.8635 50.1885 52.0028 50.4417C52.142 50.6948 52.2812 51.1335 52.4415 51.412C52.6018 51.6904 52.9267 52.2684 52.9267 52.2684C52.9267 52.2684 52.8592 53.0067 52.9267 53.3779C52.9942 53.7492 53.9898 54.8587 53.9898 55.2046C53.9898 55.5506 53.897 55.7826 54.0573 56.0146C54.2176 56.2467 54.5678 56.3859 54.6142 56.5251C54.6606 56.6643 54.7998 57.217 54.7281 57.5207C54.6606 57.8203 54.4285 58.6767 53.897 59.2082C53.3654 59.7398 52.5554 60.3853 52.5554 60.3853C52.5554 60.3853 51.6906 61.5707 51.3193 61.8703C50.9481 62.1698 50.657 62.385 50.4756 62.4651C50.3279 62.5284 49.8765 62.9503 48.6742 62.9039C47.4718 62.8575 47.1723 62.3934 46.9614 62.2331C46.7546 62.0728 46.2906 62.1065 46.1767 61.9335C45.991 61.6551 46.1767 61.4695 46.1303 61.17C46.1049 61.0181 45.9235 60.6384 45.3203 60.5456C44.717 60.4528 43.0295 60.6595 42.616 60.7776C42.1984 60.8915 41.844 61.3429 41.4601 61.2881C40.9749 61.2206 40.4898 61.4737 39.7262 61.4273C38.9415 61.3809 38.4099 60.8957 38.6631 60.689C38.777 60.5962 38.9879 60.4106 38.8698 60.111C38.7559 59.8115 37.8742 58.0776 37.621 57.546C37.3679 57.0145 37.0431 56.4407 37.0642 55.9725C37.1317 54.5845 37.7349 54.6309 37.8742 54.5634C38.0134 54.4959 38.1737 54.5845 38.4057 54.4495C38.6378 54.3103 39.5617 53.9643 39.7009 53.7576C39.8401 53.5509 39.8612 52.994 40.0257 52.8548C40.186 52.7156 41.6457 51.4457 41.9453 51.2601C42.2448 51.0745 42.5232 51.1462 42.616 51.3276C42.7089 51.509 43.0548 51.6989 43.3796 51.6271C44.0589 51.4837 43.8901 50.6779 44.2107 50.4712C44.5356 50.2645 45.6451 50.0535 46.569 50.1717C47.4929 50.2898 47.9317 50.2856 48.0498 50.7707C48.1679 51.2559 47.7039 51.9014 47.7039 51.9014Z" fill="#7ADD8A"/>
<path d="M51.758 59.5542C51.758 59.5542 54.6605 57.8203 54.7322 57.5166C54.7997 57.217 54.6647 56.6602 54.6183 56.5209C54.5719 56.3817 54.2259 56.2425 54.0614 56.0105C53.9011 55.7784 53.9939 55.5464 53.9939 55.2005C53.9939 54.8545 52.9983 53.745 52.9308 53.3738C52.8633 53.0025 52.9308 52.2642 52.9308 52.2642C52.9308 52.2642 52.6059 51.6863 52.4456 51.4078C52.2853 51.1294 52.1461 50.6906 52.0069 50.4375C51.8677 50.1844 51.8002 50.0452 51.5681 50.0452C51.3361 50.0452 51.1969 50.1127 51.1758 50.2983C51.1547 50.4839 50.9691 51.1758 50.9691 51.4542C50.9691 51.7327 50.4375 52.7958 50.3447 53.0025C50.2519 53.2092 49.8342 53.3949 49.4208 53.3738C49.0031 53.3527 48.5897 53.0025 48.2859 52.7283C48.1172 52.5722 47.6869 52.1967 47.708 51.8972C47.708 51.8972 48.172 51.2517 48.0539 50.7624C47.9358 50.273 47.497 50.2772 46.5731 50.1633C45.6492 50.0494 44.5397 50.2561 44.2148 50.4628C43.89 50.6695 44.0588 51.4753 43.3838 51.6188C43.0589 51.6863 42.713 51.5049 42.6202 51.3192C42.5273 51.1336 42.2489 51.0661 41.9494 51.2517C41.6498 51.4374 40.1902 52.7072 40.0298 52.8464C39.8695 52.9856 39.8442 53.5383 39.705 53.7492C39.5658 53.9602 38.6419 54.3061 38.4098 54.4411C38.1778 54.5803 38.0175 54.4875 37.8783 54.555C37.7391 54.6225 37.14 54.5761 37.0683 55.9641C37.043 56.4324 37.3678 57.0061 37.6252 57.5377C37.8783 58.0692 38.76 59.8031 38.8739 60.1027C38.9878 60.4022 38.7811 60.5878 38.6672 60.6806C38.4141 60.8874 38.9456 61.3725 39.7303 61.4189C40.4939 61.4653 40.9791 61.2122 41.4642 61.2797C41.8481 61.3345 42.2025 60.8874 42.6202 60.7692C43.0378 60.6553 44.7253 60.4444 45.3244 60.5372C45.9234 60.63 46.1091 61.0097 46.1344 61.1616C46.1808 61.4611 48.9905 60.6722 48.9905 60.6722L51.758 59.5542Z" fill="url(#paint2_radial_525_491)"/>
<defs>
<radialGradient id="paint0_radial_525_491" cx="0" cy="0" r="1" gradientUnits="userSpaceOnUse" gradientTransform="translate(33.55 27.262) rotate(51.2641) scale(38.368 28.6047)">
<stop offset="0.506" stop-color="#17A1F3"/>
<stop offset="0.767" stop-color="#1B7FFA"/>
<stop offset="0.962" stop-color="#1366F0"/>
<stop offset="1" stop-color="#1160EE"/>
</radialGradient>
<radialGradient id="paint1_radial_525_491" cx="0" cy="0" r="1" gradientUnits="userSpaceOnUse" gradientTransform="translate(24.2026 29.1655) rotate(16.1532) scale(18.3528 11.0766)">
<stop stop-color="#E3DDA6"/>
<stop offset="1" stop-color="#E3DDA6" stop-opacity="0"/>
</radialGradient>
<radialGradient id="paint2_radial_525_491" cx="0" cy="0" r="1" gradientUnits="userSpaceOnUse" gradientTransform="translate(42.2257 52.5293) rotate(86.1009) scale(8.07649 11.8124)">
<stop offset="0.611" stop-color="#E3DDA6"/>
<stop offset="0.966" stop-color="#E3DDA6" stop-opacity="0.087"/>
<stop offset="1" stop-color="#E3DDA6" stop-opacity="0"/>
</radialGradient>
</defs>
</svg>
