<svg width="202" height="17" viewBox="0 0 202 17" fill="none" xmlns="http://www.w3.org/2000/svg">
<path d="M13.8477 11.293C13.8411 11.9375 13.7467 12.5104 13.5645 13.0117C13.3887 13.5065 13.1413 13.9362 12.8223 14.3008C12.5033 14.6589 12.1289 14.9648 11.6992 15.2188C11.2695 15.4661 10.8073 15.668 10.3125 15.8242C9.81771 15.974 9.29688 16.0684 8.75 16.1074C8.20964 16.153 7.66602 16.1758 7.11914 16.1758C6.12956 16.1758 5.26042 16.1367 4.51172 16.0586C4.08203 16.0065 3.44076 15.8633 2.58789 15.6289C1.89128 15.4401 1.3444 15.2415 0.947266 15.0332V11.1758H3.88672C4.22526 11.6445 4.60612 11.9896 5.0293 12.2109C5.45898 12.4323 5.89844 12.543 6.34766 12.543C6.46484 12.543 6.59505 12.5332 6.73828 12.5137C6.88151 12.4941 7.01497 12.4388 7.13867 12.3477C7.26888 12.2565 7.3763 12.1133 7.46094 11.918C7.55208 11.7227 7.59766 11.4492 7.59766 11.0977C7.03776 11.0456 6.48112 10.9707 5.92773 10.873C5.38086 10.7754 4.85677 10.6419 4.35547 10.4727C3.85417 10.3034 3.38542 10.0918 2.94922 9.83789C2.51953 9.57747 2.14518 9.26497 1.82617 8.90039C1.51367 8.53581 1.26628 8.10938 1.08398 7.62109C0.908203 7.1263 0.820312 6.55664 0.820312 5.91211C0.820312 5.22201 0.911458 4.61654 1.09375 4.0957C1.27604 3.56836 1.52344 3.11589 1.83594 2.73828C2.15495 2.35417 2.52604 2.03841 2.94922 1.79102C3.37891 1.53711 3.83789 1.33529 4.32617 1.18555C4.82096 1.03581 5.33203 0.941406 5.85938 0.902344C6.39323 0.863281 6.92383 0.84375 7.45117 0.84375C8.2194 0.84375 8.90951 0.873047 9.52148 0.931641C10.14 0.983724 10.6966 1.06836 11.1914 1.18555C11.6862 1.30273 12.1224 1.4362 12.5 1.58594C12.8841 1.72917 13.2259 1.86914 13.5254 2.00586V5.81445H10.5859C10.2539 5.3457 9.88281 5.00065 9.47266 4.7793C9.06901 4.55794 8.65234 4.44727 8.22266 4.44727C8.10547 4.44727 7.97201 4.46354 7.82227 4.49609C7.67253 4.52214 7.53255 4.59049 7.40234 4.70117C7.27214 4.80534 7.16146 4.96159 7.07031 5.16992C6.97917 5.37174 6.93359 5.64844 6.93359 6C8.07292 6.03906 9.07552 6.16276 9.94141 6.37109C10.8073 6.57943 11.5267 6.89518 12.0996 7.31836C12.679 7.73503 13.1152 8.27214 13.4082 8.92969C13.7012 9.58073 13.8477 10.3685 13.8477 11.293ZM15.4492 2.25H23.6719V6.11719L22.5 6.3418V7.95312H27.1973V6.3418L26.0254 6.11719V2.20117H34.248V6.11719L33.0762 6.3418V11.8789L34.248 12.1035V16H26.0254V12.1035L27.1973 11.8789V10.248H22.5V11.8789L23.6719 12.1035V16H15.4492V12.1035L16.6211 11.8789V6.3418L15.4492 6.11719V2.25ZM43.1836 8.29492L45.8887 7.71875V10.502L43.1836 9.91602V12.0742C43.5742 12.0742 43.9518 12.0482 44.3164 11.9961C44.681 11.9375 45.0195 11.8594 45.332 11.7617C45.6445 11.6641 45.931 11.5501 46.1914 11.4199C46.4518 11.2897 46.6764 11.1497 46.8652 11H48.2031V16H36.1328V12.1035L37.3047 11.8789V6.3418L36.1328 6.11719V2.25H48.2031V7.25H46.8652C46.6764 7.10677 46.4518 6.97005 46.1914 6.83984C45.931 6.70964 45.6445 6.5957 45.332 6.49805C45.0195 6.40039 44.681 6.32227 44.3164 6.26367C43.9518 6.20508 43.5742 6.17578 43.1836 6.17578V8.29492ZM65.0391 16H59.1992C59.0169 15.6615 58.8281 15.3034 58.6328 14.9258C58.4375 14.5417 58.2487 14.1413 58.0664 13.7246C57.8841 13.3079 57.7116 12.8783 57.5488 12.4355C57.3926 11.9928 57.2591 11.5371 57.1484 11.0684H56.8262V16H49.7754V12.1035L50.9473 11.8789V6.32227L49.7754 6.09766V2.25H57.7734C58.8346 2.25 59.7493 2.29557 60.5176 2.38672C61.2923 2.47786 61.9466 2.61133 62.4805 2.78711C63.0208 2.96289 63.457 3.17773 63.7891 3.43164C64.1211 3.67904 64.3783 3.96224 64.5605 4.28125C64.7493 4.59375 64.8763 4.9388 64.9414 5.31641C65.0065 5.69401 65.0391 6.0944 65.0391 6.51758C65.0391 6.94727 64.9967 7.33789 64.9121 7.68945C64.834 8.04102 64.6908 8.36328 64.4824 8.65625C64.2741 8.94922 63.9876 9.2194 63.623 9.4668C63.265 9.70768 62.806 9.93555 62.2461 10.1504C62.3633 10.3848 62.5358 10.6647 62.7637 10.9902C62.998 11.3092 63.252 11.638 63.5254 11.9766C63.7988 12.3086 64.069 12.6309 64.3359 12.9434C64.6094 13.2559 64.8438 13.5228 65.0391 13.7441V16ZM56.8262 8.42188C57.1842 8.42188 57.5065 8.4056 57.793 8.37305C58.0859 8.33398 58.3333 8.25586 58.5352 8.13867C58.7435 8.01497 58.903 7.83594 59.0137 7.60156C59.1243 7.36719 59.1797 7.05143 59.1797 6.6543C59.1797 6.26367 59.1243 5.95117 59.0137 5.7168C58.903 5.48242 58.7435 5.30339 58.5352 5.17969C58.3333 5.04948 58.0859 4.96484 57.793 4.92578C57.5065 4.88672 57.1842 4.86719 56.8262 4.86719V8.42188ZM73.7305 12.25C74.0039 12.25 74.2643 12.2142 74.5117 12.1426C74.7591 12.0645 74.987 11.9668 75.1953 11.8496C75.4102 11.7259 75.6022 11.5924 75.7715 11.4492C75.9473 11.2995 76.1003 11.1497 76.2305 11H77.8613V16H66.6895V12.1035L67.8613 11.8789V6.32227L66.6895 6.09766V2.25H74.9121V6.09766L73.7305 6.32227V12.25ZM86.9434 16.1758C85.7975 16.1758 84.7233 16.0553 83.7207 15.8145C82.7246 15.5671 81.8555 15.1471 81.1133 14.5547C80.3776 13.9557 79.7949 13.194 79.3652 12.2695C78.9421 11.3451 78.7305 10.235 78.7305 8.93945C78.7305 7.66992 78.9421 6.58919 79.3652 5.69727C79.7949 4.79883 80.3809 4.06966 81.123 3.50977C81.8652 2.94336 82.7344 2.52995 83.7305 2.26953C84.7266 2.00911 85.7975 1.87891 86.9434 1.87891C88.0827 1.87891 89.1504 2.00911 90.1465 2.26953C91.1491 2.52995 92.0215 2.94336 92.7637 3.50977C93.5124 4.06966 94.1016 4.79883 94.5312 5.69727C94.9609 6.58919 95.1758 7.66992 95.1758 8.93945C95.1758 9.79883 95.0781 10.5801 94.8828 11.2832C94.6875 11.9798 94.4108 12.6016 94.0527 13.1484C93.7012 13.6888 93.2747 14.1576 92.7734 14.5547C92.2786 14.9453 91.7253 15.2708 91.1133 15.5312C90.5013 15.7852 89.8438 15.9544 89.1406 16.0391C88.4375 16.1302 87.7051 16.1758 86.9434 16.1758ZM86.9434 6.03906C86.5592 6.03906 86.2337 6.08789 85.9668 6.18555C85.7064 6.2832 85.4883 6.41016 85.3125 6.56641C85.1432 6.72266 85.0098 6.90169 84.9121 7.10352C84.8145 7.30534 84.7428 7.51367 84.6973 7.72852C84.6582 7.93685 84.6322 8.14518 84.6191 8.35352C84.6126 8.55534 84.6094 8.73438 84.6094 8.89062C84.6094 9.04036 84.6126 9.2194 84.6191 9.42773C84.6257 9.62956 84.6484 9.8444 84.6875 10.0723C84.7266 10.2936 84.7917 10.515 84.8828 10.7363C84.974 10.9577 85.1042 11.1562 85.2734 11.332C85.4492 11.5078 85.6706 11.651 85.9375 11.7617C86.2109 11.8659 86.5462 11.918 86.9434 11.918C87.334 11.918 87.6628 11.8659 87.9297 11.7617C88.2031 11.6576 88.4245 11.5208 88.5938 11.3516C88.7695 11.1758 88.9062 10.9805 89.0039 10.7656C89.1016 10.5508 89.1699 10.3359 89.209 10.1211C89.2546 9.89974 89.2806 9.6849 89.2871 9.47656C89.3001 9.26823 89.3066 9.08919 89.3066 8.93945C89.3066 8.7832 89.3001 8.60417 89.2871 8.40234C89.2806 8.19401 89.2546 7.98242 89.209 7.76758C89.1699 7.55273 89.1016 7.3444 89.0039 7.14258C88.9062 6.93424 88.7695 6.7487 88.5938 6.58594C88.4245 6.42318 88.2031 6.29297 87.9297 6.19531C87.6628 6.09115 87.334 6.03906 86.9434 6.03906ZM102.246 8.93945C102.246 9.97461 102.51 10.7298 103.037 11.2051C103.564 11.6738 104.313 11.9082 105.283 11.9082C105.856 11.9082 106.527 11.8366 107.295 11.6934C108.07 11.5501 108.942 11.332 109.912 11.0391V15.2871C107.959 15.8796 106.081 16.1758 104.277 16.1758C103.158 16.1758 102.116 16.0456 101.152 15.7852C100.189 15.5182 99.3522 15.082 98.6426 14.4766C97.9329 13.8711 97.373 13.1094 96.9629 12.1914C96.5592 11.2669 96.3574 10.1829 96.3574 8.93945C96.3574 7.70898 96.543 6.65104 96.9141 5.76562C97.2917 4.8737 97.8223 4.14128 98.5059 3.56836C99.196 2.98893 100.023 2.5625 100.986 2.28906C101.95 2.01562 103.024 1.87891 104.209 1.87891C104.932 1.87891 105.583 1.91471 106.162 1.98633C106.748 2.05794 107.272 2.14909 107.734 2.25977C108.203 2.37044 108.613 2.49414 108.965 2.63086C109.323 2.76107 109.639 2.88802 109.912 3.01172V7.25977H107.148C106.836 6.83008 106.491 6.51432 106.113 6.3125C105.736 6.10417 105.342 6 104.932 6C104.593 6 104.261 6.0651 103.936 6.19531C103.617 6.32552 103.33 6.51758 103.076 6.77148C102.829 7.01888 102.627 7.32487 102.471 7.68945C102.321 8.05404 102.246 8.4707 102.246 8.93945ZM127.969 16H121.377L118.779 10.2383V16H111.729V12.1035L112.9 11.8789V6.32227L111.729 6.09766V2.25H118.779V7.73828L121.377 2.25H127.705V4.73047C127.321 5.05599 126.963 5.39779 126.631 5.75586C126.305 6.11393 125.999 6.47526 125.713 6.83984C125.426 7.20443 125.163 7.5625 124.922 7.91406C124.681 8.26562 124.463 8.60091 124.268 8.91992C124.521 9.32357 124.792 9.74674 125.078 10.1895C125.365 10.6257 125.661 11.0651 125.967 11.5078C126.279 11.9505 126.602 12.3867 126.934 12.8164C127.272 13.2396 127.617 13.6367 127.969 14.0078V16Z" fill="#953F0F"/>
<path d="M133.789 16.0098L129.795 5.47266L128.311 5.23828V1H137.432V5.23828L136.357 5.47266L138.047 11.0293L139.736 5.47266L138.662 5.23828V1H146.211V5.23828L144.736 5.47266L140.742 16.0098H133.789ZM154.795 16.1758C153.649 16.1758 152.575 16.0553 151.572 15.8145C150.576 15.5671 149.707 15.1471 148.965 14.5547C148.229 13.9557 147.646 13.194 147.217 12.2695C146.794 11.3451 146.582 10.235 146.582 8.93945C146.582 7.66992 146.794 6.58919 147.217 5.69727C147.646 4.79883 148.232 4.06966 148.975 3.50977C149.717 2.94336 150.586 2.52995 151.582 2.26953C152.578 2.00911 153.649 1.87891 154.795 1.87891C155.934 1.87891 157.002 2.00911 157.998 2.26953C159.001 2.52995 159.873 2.94336 160.615 3.50977C161.364 4.06966 161.953 4.79883 162.383 5.69727C162.812 6.58919 163.027 7.66992 163.027 8.93945C163.027 9.79883 162.93 10.5801 162.734 11.2832C162.539 11.9798 162.262 12.6016 161.904 13.1484C161.553 13.6888 161.126 14.1576 160.625 14.5547C160.13 14.9453 159.577 15.2708 158.965 15.5312C158.353 15.7852 157.695 15.9544 156.992 16.0391C156.289 16.1302 155.557 16.1758 154.795 16.1758ZM154.795 6.03906C154.411 6.03906 154.085 6.08789 153.818 6.18555C153.558 6.2832 153.34 6.41016 153.164 6.56641C152.995 6.72266 152.861 6.90169 152.764 7.10352C152.666 7.30534 152.594 7.51367 152.549 7.72852C152.51 7.93685 152.484 8.14518 152.471 8.35352C152.464 8.55534 152.461 8.73438 152.461 8.89062C152.461 9.04036 152.464 9.2194 152.471 9.42773C152.477 9.62956 152.5 9.8444 152.539 10.0723C152.578 10.2936 152.643 10.515 152.734 10.7363C152.826 10.9577 152.956 11.1562 153.125 11.332C153.301 11.5078 153.522 11.651 153.789 11.7617C154.062 11.8659 154.398 11.918 154.795 11.918C155.186 11.918 155.514 11.8659 155.781 11.7617C156.055 11.6576 156.276 11.5208 156.445 11.3516C156.621 11.1758 156.758 10.9805 156.855 10.7656C156.953 10.5508 157.021 10.3359 157.061 10.1211C157.106 9.89974 157.132 9.6849 157.139 9.47656C157.152 9.26823 157.158 9.08919 157.158 8.93945C157.158 8.7832 157.152 8.60417 157.139 8.40234C157.132 8.19401 157.106 7.98242 157.061 7.76758C157.021 7.55273 156.953 7.3444 156.855 7.14258C156.758 6.93424 156.621 6.7487 156.445 6.58594C156.276 6.42318 156.055 6.29297 155.781 6.19531C155.514 6.09115 155.186 6.03906 154.795 6.03906ZM164.424 2.25H172.646V6.09766L171.475 6.32227V11.8789L172.646 12.1035V16H164.424V12.1035L165.596 11.8789V6.32227L164.424 6.09766V2.25ZM179.941 8.93945C179.941 9.97461 180.205 10.7298 180.732 11.2051C181.26 11.6738 182.008 11.9082 182.979 11.9082C183.551 11.9082 184.222 11.8366 184.99 11.6934C185.765 11.5501 186.637 11.332 187.607 11.0391V15.2871C185.654 15.8796 183.776 16.1758 181.973 16.1758C180.853 16.1758 179.811 16.0456 178.848 15.7852C177.884 15.5182 177.048 15.082 176.338 14.4766C175.628 13.8711 175.068 13.1094 174.658 12.1914C174.255 11.2669 174.053 10.1829 174.053 8.93945C174.053 7.70898 174.238 6.65104 174.609 5.76562C174.987 4.8737 175.518 4.14128 176.201 3.56836C176.891 2.98893 177.718 2.5625 178.682 2.28906C179.645 2.01562 180.719 1.87891 181.904 1.87891C182.627 1.87891 183.278 1.91471 183.857 1.98633C184.443 2.05794 184.967 2.14909 185.43 2.25977C185.898 2.37044 186.309 2.49414 186.66 2.63086C187.018 2.76107 187.334 2.88802 187.607 3.01172V7.25977H184.844C184.531 6.83008 184.186 6.51432 183.809 6.3125C183.431 6.10417 183.037 6 182.627 6C182.288 6 181.956 6.0651 181.631 6.19531C181.312 6.32552 181.025 6.51758 180.771 6.77148C180.524 7.01888 180.322 7.32487 180.166 7.68945C180.016 8.05404 179.941 8.4707 179.941 8.93945ZM196.465 8.29492L199.17 7.71875V10.502L196.465 9.91602V12.0742C196.855 12.0742 197.233 12.0482 197.598 11.9961C197.962 11.9375 198.301 11.8594 198.613 11.7617C198.926 11.6641 199.212 11.5501 199.473 11.4199C199.733 11.2897 199.958 11.1497 200.146 11H201.484V16H189.414V12.1035L190.586 11.8789V6.3418L189.414 6.11719V2.25H201.484V7.25H200.146C199.958 7.10677 199.733 6.97005 199.473 6.83984C199.212 6.70964 198.926 6.5957 198.613 6.49805C198.301 6.40039 197.962 6.32227 197.598 6.26367C197.233 6.20508 196.855 6.17578 196.465 6.17578V8.29492Z" fill="#0B9139"/>
</svg>
